<?xml version="1.0" encoding="UTF-8" standalone="no"?>
<!-- Created with Inkscape (http://www.inkscape.org/) -->

<svg
   xmlns:dc="http://purl.org/dc/elements/1.1/"
   xmlns:cc="http://creativecommons.org/ns#"
   xmlns:rdf="http://www.w3.org/1999/02/22-rdf-syntax-ns#"
   xmlns:svg="http://www.w3.org/2000/svg"
   xmlns="http://www.w3.org/2000/svg"
   xmlns:sodipodi="http://sodipodi.sourceforge.net/DTD/sodipodi-0.dtd"
   xmlns:inkscape="http://www.inkscape.org/namespaces/inkscape"
   width="307.65677mm"
   height="484.87332mm"
   viewBox="0 0 1090.1224 1718.0551"
   id="svg2"
   version="1.1"
   inkscape:version="0.91 r13725"
   sodipodi:docname="Tetzcoco_glyph.svg">
  <defs
     id="defs4" />
  <sodipodi:namedview
     id="base"
     pagecolor="#ffffff"
     bordercolor="#666666"
     borderopacity="1.0"
     inkscape:pageopacity="0.0"
     inkscape:pageshadow="2"
     inkscape:zoom="0.30848836"
     inkscape:cx="545.06123"
     inkscape:cy="859.02753"
     inkscape:document-units="px"
     inkscape:current-layer="layer1"
     showgrid="false"
     inkscape:window-width="1366"
     inkscape:window-height="705"
     inkscape:window-x="-8"
     inkscape:window-y="-8"
     inkscape:window-maximized="1"
     fit-margin-top="0"
     fit-margin-left="0"
     fit-margin-right="0"
     fit-margin-bottom="0" />
  <metadata
     id="metadata7">
    <rdf:RDF>
      <cc:Work
         rdf:about="">
        <dc:format>image/svg+xml</dc:format>
        <dc:type
           rdf:resource="http://purl.org/dc/dcmitype/StillImage" />
        <dc:title></dc:title>
      </cc:Work>
    </rdf:RDF>
  </metadata>
  <g
     inkscape:label="Capa 1"
     inkscape:groupmode="layer"
     id="layer1"
     transform="translate(1527.745,427.81637)">
    <g
       id="g4601">
      <path
         sodipodi:nodetypes="ccccc"
         id="rect4167"
         d="m -871.17758,-26.480713 133.34013,0 0,763.644803 -122.08305,193.40585 z"
         style="opacity:1;fill:#a9c99f;fill-opacity:1;stroke:#000000;stroke-width:13;stroke-miterlimit:4;stroke-dasharray:none"
         inkscape:connector-curvature="0" />
      <path
         id="rect4167-6"
         d="m -1125.1776,-26.480695 133.34015,0 0,923.279415 -133.34015,0 z"
         style="opacity:1;fill:#a9c99f;fill-opacity:1;stroke:#000000;stroke-width:13;stroke-miterlimit:4;stroke-dasharray:none"
         inkscape:connector-curvature="0" />
      <path
         sodipodi:nodetypes="ccccccc"
         inkscape:connector-curvature="0"
         id="rect3347"
         d="m -1249.1428,66.647919 c 140.5878,207.440831 145.0537,457.105301 177.5044,698.915451 l 58.0424,268.39483 -253.2249,72.5359 c -87.8679,99.9747 -58.7504,195.2209 -179.6682,174.3095 -174.5692,-153.8069 24.9849,-378.304 85.8381,-520.00934 88.8217,-250.63309 135.8324,-441.18843 111.5082,-694.146341 z"
         style="opacity:1;fill:#ebb47a;fill-opacity:1;stroke:#000000;stroke-width:13;stroke-miterlimit:4;stroke-dasharray:none" />
      <path
         sodipodi:nodetypes="ccccc"
         inkscape:connector-curvature="0"
         id="rect3347-8"
         d="M -867.65741,40.383958 C -1008.2452,247.82478 -1012.7112,497.48925 -1045.1619,739.2994 l -62.0829,298.6995 361.19707,-0.4228 C -834.86941,786.94296 -891.98165,293.34186 -867.65741,40.383958 Z"
         style="opacity:1;fill:#ebb47a;fill-opacity:1;stroke:#000000;stroke-width:13;stroke-miterlimit:4;stroke-dasharray:none" />
      <path
         sodipodi:nodetypes="cccsccc"
         inkscape:connector-curvature="0"
         id="rect3347-5"
         d="m -1094.4955,628.4205 80.8995,405.5377 -253.2249,72.5359 c -66.3637,75.5076 -65.9957,148.3179 -113.9352,170.4244 -15.5341,7.1633 -36.1404,9.0028 -65.733,3.8851 -146.9864,-129.5047 -48.4844,-332.9754 48.6275,-447.24361 128.7084,-30.66264 212.971,-98.09216 303.3661,-205.13949 z"
         style="opacity:1;fill:#ac6a45;fill-opacity:1;stroke:#000000;stroke-width:13;stroke-miterlimit:4;stroke-dasharray:none" />
      <path
         sodipodi:nodetypes="ccccc"
         inkscape:connector-curvature="0"
         id="rect3347-8-4"
         d="m -870.51451,228.95537 c -38.4308,108.84461 -56.34422,219.17875 -146.75639,293.76981 l -33.6053,243.71706 c 106.92924,-78.6108 148.91921,-194.23131 192.11055,-314.47225 z"
         style="opacity:1;fill:#ac6a45;fill-opacity:1;stroke:#000000;stroke-width:13;stroke-miterlimit:4;stroke-dasharray:none" />
      <path
         sodipodi:nodetypes="ccccccccc"
         inkscape:connector-curvature="0"
         id="rect4555"
         d="m -1356.3671,494.96774 c 8.5794,54.27247 5.8497,70.15739 54.502,106.79405 93.7605,-47.55928 130.0013,-122.45609 181.8651,-209.39955 7.6191,61.90476 15.2381,123.80951 22.8572,185.71427 -80.1826,91.98333 -179.125,153.64269 -274.2858,212.85715 9.4335,-25.58077 18.8669,-51.16155 28.3004,-76.74232 -118.2332,53.69744 -155.4226,45.46894 -53.0091,-46.27574 -80.6747,5.30775 -25.8281,-53.90781 11.9271,-72.49604 -27.002,-47.64333 1.3188,-127.34886 27.8431,-100.45182 z"
         style="opacity:1;fill:#ac6a45;fill-opacity:1;stroke:#000000;stroke-width:13;stroke-miterlimit:4;stroke-dasharray:none" />
      <path
         sodipodi:nodetypes="cccc"
         inkscape:connector-curvature="0"
         id="rect4579"
         d="m -844.16433,588.25074 85.04657,419.88576 c -121.13821,-1.3036 -266.67994,-13.86421 -372.80064,-15.16781 97.7984,-136.28832 233.89884,-289.5251 287.75407,-404.71795 z"
         style="opacity:1;fill:#ac6a45;fill-opacity:1;stroke:#000000;stroke-width:12.88984299;stroke-miterlimit:4;stroke-dasharray:none" />
      <path
         sodipodi:nodetypes="cccccc"
         inkscape:connector-curvature="0"
         id="rect3347-1"
         d="m -735.55296,42.404263 c 220.92739,332.840727 134.06522,717.693857 283.23189,1042.909837 48.28625,143.2391 -130.58016,278.5711 -188.75967,141.3174 l -294.92963,-152.2109 c 6.25818,-104.51892 114.34525,-175.83571 143.97353,-258.32628 62.14221,-198.11651 76.92419,-561.12273 56.48388,-773.690057 z"
         style="opacity:1;fill:#ebb47a;fill-opacity:1;stroke:#000000;stroke-width:13;stroke-miterlimit:4;stroke-dasharray:none" />
      <g
         id="g4582">
        <path
           style="opacity:1;fill:#b45f65;fill-opacity:1;stroke:#000000;stroke-width:13;stroke-miterlimit:4;stroke-dasharray:none"
           d="m -1122.0405,998.55524 c -80.0823,0.1167 -158.9043,2.93656 -209.8164,17.14456 -79.5133,22.1898 -81.6965,86.6555 -81.7558,119.6269 -0.029,0.833 -0.055,1.6615 -0.055,2.4531 0,1.2088 0.01,2.5187 0.025,3.8887 -0.124,17.9325 -0.3212,52.2802 20.3828,67.5762 19.9493,14.7384 60.255,10.1939 99.0722,13.4746 0.016,0 0.031,0 0.047,0 0.01,7e-4 0.017,0 0.025,0 0.4519,0.038 0.9021,0.084 1.3535,0.125 2.1137,0.1947 4.2233,0.4025 6.3165,0.6445 l 0.045,0 313.15817,0 301.08203,0 0.0449,0 c 2.0932,-0.242 4.2028,-0.4498 6.31641,-0.6445 0.45145,-0.041 0.90162,-0.087 1.35351,-0.125 0.0241,0 0.0482,0 0.0723,-0.01 38.81722,-3.2807 79.12295,1.2638 99.07226,-13.4746 20.70392,-15.296 20.50679,-49.6437 20.38282,-67.5762 0.0176,-1.37 0.0254,-2.6799 0.0254,-3.8887 0,-0.7657 -0.0256,-1.5685 -0.0527,-2.373 -0.056,-32.9472 -2.18094,-97.4995 -81.75781,-119.707 -52.79022,-14.7322 -135.58831,-17.20446 -218.6836,-17.13086 -44.81918,-0.1076 -90.72685,0.7702 -133.89453,0.8106 -43.16836,-0.04 -89.07476,-0.9183 -133.89456,-0.8106 -2.9559,0 -5.9114,-0.018 -8.8652,-0.014 z"
           id="path4174"
           inkscape:connector-curvature="0" />
        <path
           style="opacity:1;fill:#f4dfa8;fill-opacity:1;stroke:#000000;stroke-width:13;stroke-miterlimit:4;stroke-dasharray:none"
           d="m -1122.7637,1119.777 c -80.488,0.051 -159.7094,1.2783 -210.8794,7.463 -79.9161,9.6591 -82.1104,37.7207 -82.17,52.0729 -0.029,0.3626 -0.055,0.7233 -0.055,1.0679 0,0.5261 0.01,1.0963 0.025,1.6927 -0.1247,7.8059 -0.3229,22.7573 20.486,29.4156 20.0504,6.4155 60.5603,4.4373 99.5741,5.8654 0.016,0 0.031,0 0.047,0 0.01,3e-4 0.017,0 0.025,0 0.4542,0.017 0.9067,0.037 1.3604,0.054 2.1244,0.085 4.2447,0.1752 6.3485,0.2806 l 0.045,0 314.74466,0 302.60734,0 0.0451,0 c 2.1038,-0.1054 4.22409,-0.1958 6.34841,-0.2806 0.45374,-0.018 0.90619,-0.038 1.36037,-0.054 0.0242,0 0.0484,0 0.0727,0 39.01387,-1.428 79.5238,0.5502 99.57417,-5.8654 20.80881,-6.6583 20.61068,-21.6096 20.48608,-29.4156 0.0177,-0.5963 0.0255,-1.1665 0.0255,-1.6927 0,-0.3333 -0.0257,-0.6828 -0.053,-1.0329 -0.0563,-14.3418 -2.19199,-42.4411 -82.17201,-52.1079 -53.05766,-6.4129 -136.27521,-7.489 -219.79147,-7.457 -45.04624,-0.047 -91.18648,0.3353 -134.57286,0.3529 -43.38709,-0.017 -89.52609,-0.3998 -134.57289,-0.3529 -2.9709,0 -5.9414,-0.01 -8.9101,-0.01 z"
           id="path4174-0"
           inkscape:connector-curvature="0" />
      </g>
      <path
         sodipodi:nodetypes="ccccccccc"
         inkscape:connector-curvature="0"
         id="rect3347-8-4-5"
         d="m -611.94313,287.5268 c -12.50532,103.1099 -75.95179,190.04274 -124.38967,266.26508 -8.0962,108.75602 -44.11772,186.20681 -70.70529,291.65051 65.48911,-95.41418 136.0268,-180.63751 249.56178,-216.43773 85.29095,43.42114 125.2753,33.383 43.43739,-29.92487 110.06977,-45.82063 15.46701,-59.73652 -53.47637,-56.46962 93.92482,-6.03016 95.82863,-128.12924 18.85064,-133.75564 18.26082,37.26986 11.38001,89.16716 -20.10105,73.11545 z"
         style="opacity:1;fill:#ac6a45;fill-opacity:1;stroke:#000000;stroke-width:13;stroke-miterlimit:4;stroke-dasharray:none" />
      <g
         id="g4586">
        <circle
           style="opacity:1;fill:#b45f65;fill-opacity:1;stroke:#000000;stroke-width:13;stroke-miterlimit:4;stroke-dasharray:none"
           id="path4233-1"
           cx="-1058.5076"
           cy="-166.20924"
           r="162.93436" />
        <circle
           style="opacity:1;fill:#b45f65;fill-opacity:1;stroke:#000000;stroke-width:13;stroke-miterlimit:4;stroke-dasharray:none"
           id="path4233"
           cx="-804.50751"
           cy="-166.20923"
           r="162.93436" />
        <circle
           style="opacity:1;fill:#f9d878;fill-opacity:1;stroke:#000000;stroke-width:13.4192028;stroke-miterlimit:4;stroke-dasharray:none"
           id="path4233-0"
           cx="-948.57141"
           cy="-250.49493"
           r="62.040398" />
        <circle
           style="opacity:1;fill:#f9d878;fill-opacity:1;stroke:#000000;stroke-width:13.4192028;stroke-miterlimit:4;stroke-dasharray:none"
           id="path4233-0-9"
           cx="-826.73578"
           cy="-352.64709"
           r="62.040398" />
        <circle
           style="opacity:1;fill:#f9d878;fill-opacity:1;stroke:#000000;stroke-width:13.4192028;stroke-miterlimit:4;stroke-dasharray:none"
           id="path4233-0-9-6"
           cx="-665.71423"
           cy="-299.06638"
           r="62.040398" />
        <circle
           style="opacity:1;fill:#f9d878;fill-opacity:1;stroke:#000000;stroke-width:13.4192028;stroke-miterlimit:4;stroke-dasharray:none"
           id="path4233-0-9-6-3"
           cx="-620"
           cy="-147.63779"
           r="62.040398" />
        <circle
           style="opacity:1;fill:#f9d878;fill-opacity:1;stroke:#000000;stroke-width:13.4192028;stroke-miterlimit:4;stroke-dasharray:none"
           id="path4233-0-9-6-3-1"
           cx="-731.42853"
           cy="-4.7806573"
           r="62.040398" />
        <circle
           style="opacity:1;fill:#f9d878;fill-opacity:1;stroke:#000000;stroke-width:13.4192028;stroke-miterlimit:4;stroke-dasharray:none"
           id="path4233-0-9-6-3-1-2"
           cx="-971.42859"
           cy="-47.637794"
           r="62.040398" />
        <circle
           style="opacity:1;fill:#f9d878;fill-opacity:1;stroke:#000000;stroke-width:13.4192028;stroke-miterlimit:4;stroke-dasharray:none"
           id="path4233-0-9-6-3-1-2-6"
           cx="-925.71423"
           cy="-79.066368"
           r="62.040398" />
        <circle
           style="opacity:1;fill:#f9d878;fill-opacity:1;stroke:#000000;stroke-width:13.4192028;stroke-miterlimit:4;stroke-dasharray:none"
           id="path4233-0-9-6-3-1-2-6-8"
           cx="-1148.5714"
           cy="-27.637798"
           r="62.040398" />
        <circle
           style="opacity:1;fill:#f9d878;fill-opacity:1;stroke:#000000;stroke-width:13.4192028;stroke-miterlimit:4;stroke-dasharray:none"
           id="path4233-0-9-6-3-1-2-6-8-1"
           cx="-1254.2858"
           cy="-170.49493"
           r="62.040398" />
        <circle
           style="opacity:1;fill:#f9d878;fill-opacity:1;stroke:#000000;stroke-width:13.4192028;stroke-miterlimit:4;stroke-dasharray:none"
           id="path4233-0-9-6-3-1-2-6-8-1-2"
           cx="-1177.1429"
           cy="-321.92349"
           r="62.040398" />
        <circle
           style="opacity:1;fill:#f9d878;fill-opacity:1;stroke:#000000;stroke-width:13.4192028;stroke-miterlimit:4;stroke-dasharray:none"
           id="path4233-0-9-6-3-1-2-6-8-1-2-6"
           cx="-1017.1429"
           cy="-359.06638"
           r="62.040398" />
      </g>
    </g>
  </g>
</svg>
