<?xml version="1.0" encoding="UTF-8"?>
<svg viewBox="0 0 188.56 247.39999" xmlns="http://www.w3.org/2000/svg" xmlns:xlink="http://www.w3.org/1999/xlink">
 <defs>
  <filter id="g">
   <feGaussianBlur stdDeviation="3.1828"/>
  </filter>
  <linearGradient id="a">
   <stop stop-color="#61a45e" offset="0"/>
   <stop stop-color="#aed0ac" stop-opacity="0" offset="1"/>
  </linearGradient>
  <linearGradient id="f" x1="139.66" x2="139.91" y1="285.2" y2="187.43" gradientUnits="userSpaceOnUse">
   <stop stop-color="#83b67d" offset="0"/>
   <stop stop-color="#bbd7b8" stop-opacity="0" offset="1"/>
  </linearGradient>
  <linearGradient id="e" x1="300.51" x2="300.53" y1="549.15" y2="524.86" gradientUnits="userSpaceOnUse" xlink:href="#a"/>
  <linearGradient id="d" x1="294.97" x2="295.28" y1="549.15" y2="524.86" gradientUnits="userSpaceOnUse" xlink:href="#a"/>
  <linearGradient id="c" x1="304.47" x2="304.38" y1="549.15" y2="524.86" gradientUnits="userSpaceOnUse" xlink:href="#a"/>
  <linearGradient id="b" x1="304.81" x2="304.73" y1="549.15" y2="524.86" gradientUnits="userSpaceOnUse" xlink:href="#a"/>
 </defs>
 <g transform="translate(-40.418 -45.29)">
  <path d="m174.9 61.467s-10.133 7.3993-12.143 12.143c-5.1837 12.235-3.3242 31.257-0.71428 44.286 8.3124 41.495 57.207 86.974 56.429 129.29-0.17282 9.391-5.632 23.196-13.571 28.214-18.295 11.564-72.857 8.9286-72.857 8.9286" fill="none" filter="url(#g)" stroke="#6e6e6e" stroke-width="5"/>
  <path d="m66.712 187.43-12.143 22.143c-6.0875 20.891-19.482 41.052 1.4286 64.643 26.606 15.657 119.59 12.794 145.36 2.5 23.115-19.336 14.654-37.654 9.2857-56.071-3.8071-10.237-10.152-21.743-15.714-32.857l-128.21-0.35715z" fill="#bbd7b8" fill-rule="evenodd"/>
  <path d="m67.861 188.86h126.63" fill="none" stroke="#aed0ac" stroke-width="5"/>
  <path d="m66.712 187.43-12.143 22.143c-6.0875 20.891-19.482 41.052 1.4286 64.643 26.606 15.657 119.59 12.794 145.36 2.5 23.115-19.336 14.654-37.654 9.2857-56.071-3.8071-10.237-10.152-21.743-15.714-32.857l-128.21-0.35715z" fill="url(#f)" fill-rule="evenodd"/>
  <path d="m88.498 62.076s10.133 7.3993 12.143 12.143c5.1837 12.235 3.3242 31.257 0.71428 44.286-8.3124 41.495-57.207 86.974-56.429 129.29 0.17282 9.391 5.632 23.196 13.571 28.214 18.295 11.564 72.857 8.9286 72.857 8.9286" fill="none" stroke="#000" stroke-width="5"/>
  <path d="m173.28 62.076s-10.133 7.3993-12.143 12.143c-5.1837 12.235-3.3242 31.257-0.71428 44.286 8.3124 41.495 57.207 86.974 56.429 129.29-0.17282 9.391-5.632 23.196-13.571 28.214-18.295 11.564-72.857 8.9286-72.857 8.9286" fill="none" stroke="#000" stroke-width="5"/>
  <path transform="matrix(.66668 0 0 .67648 -57.815 -200.48)" d="m310 537.01a12.321 12.143 0 1 1 -24.643 0 12.321 12.143 0 1 1 24.643 0z" fill="#bbd7b8" fill-rule="evenodd" opacity=".83806"/>
  <path transform="matrix(.84059 0 0 .85295 -124.94 -327.39)" d="m310 537.01a12.321 12.143 0 1 1 -24.643 0 12.321 12.143 0 1 1 24.643 0z" fill="#bbd7b8" fill-rule="evenodd" opacity=".83806"/>
  <path transform="matrix(.89856 0 0 .91178 -128.98 -393.27)" d="m310 537.01a12.321 12.143 0 1 1 -24.643 0 12.321 12.143 0 1 1 24.643 0z" fill="#bbd7b8" fill-rule="evenodd" opacity=".83806"/>
  <path transform="matrix(1.2464 0 0 1.2647 -247.31 -618.51)" d="m310 537.01a12.321 12.143 0 1 1 -24.643 0 12.321 12.143 0 1 1 24.643 0z" fill="#bbd7b8" fill-rule="evenodd" opacity=".83806"/>
  <path transform="matrix(.66668 0 0 .67648 -57.815 -200.48)" d="m310 537.01a12.321 12.143 0 1 1 -24.643 0 12.321 12.143 0 1 1 24.643 0z" fill="url(#e)" fill-rule="evenodd" opacity=".83806"/>
  <path transform="matrix(.84059 0 0 .85295 -124.94 -327.39)" d="m310 537.01a12.321 12.143 0 1 1 -24.643 0 12.321 12.143 0 1 1 24.643 0z" fill="url(#d)" fill-rule="evenodd" opacity=".83806"/>
  <path transform="matrix(.89856 0 0 .91178 -128.98 -393.27)" d="m310 537.01a12.321 12.143 0 1 1 -24.643 0 12.321 12.143 0 1 1 24.643 0z" fill="url(#c)" fill-rule="evenodd" opacity=".83806"/>
  <path transform="matrix(1.2464 0 0 1.2647 -247.31 -618.51)" d="m310 537.01a12.321 12.143 0 1 1 -24.643 0 12.321 12.143 0 1 1 24.643 0z" fill="url(#b)" fill-rule="evenodd" opacity=".83806"/>
 </g>
</svg>
