<?xml version="1.0" encoding="UTF-8"?>
<svg viewBox="0 0 640 480" xmlns="http://www.w3.org/2000/svg">
 <g fill-rule="evenodd">
  <g stroke-linecap="round" stroke-linejoin="round">
   <path d="m198.03 60.828l10.625 10.625v67.312c-7.0866 10.63-48.434 89.774-70.875 134.66-7.0866 14.173-7.0674 31.889 3.5625 46.062 7.0866 10.63 19.462 14.188 31.875 14.188h127.56c12.414 0 24.788-3.5576 31.875-14.188 10.63-14.173 10.649-31.889 3.5625-46.062-20.079-44.882-43.702-89.774-63.781-134.66v-67.312l10.281-10.281 0.3438-0.3438h-85.031z" fill="#d7e9fc" stroke="#9fabb9" stroke-width="2.5"/>
   <path d="m199.41 171.17c-14.787 26.369-39.847 73.052-55.375 103.06-6.6402 12.833-6.6165 28.854 3.3438 41.688 6.6402 9.6248 18.244 12.844 29.875 12.844h119.5c11.631 0 23.235-3.2189 29.875-12.844 9.9602-12.833 9.9839-28.854 3.3438-41.688-15.9-34.344-34.053-68.716-50.688-103.06h-79.875z" fill="#0f0" stroke="#565e63" stroke-width=".625"/>
  </g>
  <path d="m259.94 71.159v68.75c22.553 47.696 45.216 95.361 67.703 143.08 6.291 14.895-1.556 32.256-15.164 39.888-12.134 8.144-27.079 4.995-40.742 5.557h-29.004c17.309-2.229 34.971-2.649 52.048-6.092 11.216-3.501 24.841-9.741 25.527-23.289 0.70499-14.462-8.367-26.699-13.192-39.769-17.392-39.79-34.784-79.58-52.176-119.37v-68.75l9.037-9.0853h5.032l-9.07 9.0853h9.77e-4z" fill="#fff"/>
  <path d="m214.61 71.159v68.75c-22.554 47.696-49.689 91.036-72.176 138.75-6.2912 14.895-1.25 35 11.25 43.75 12.5 6.25 8.75 5 22.878 6.639 9.668 0 45.586-0.61902 55.254-0.61902-17.309-2.229-34.971-2.649-52.048-6.092-11.216-3.501-24.841-9.741-25.526-23.289-0.70509-14.462 8.3663-26.699 13.192-39.769 17.392-39.79 34.785-79.58 52.177-119.37v-68.75l-9.038-9.0853h-5.032l9.07 9.0853z" fill-opacity=".176"/>
 </g>
</svg>
