<?xml version="1.0" encoding="UTF-8"?>
<svg viewBox="0 0 100.59035 112.42487" xmlns="http://www.w3.org/2000/svg">
 <g transform="translate(2.2231 -89.446)">
  <path transform="matrix(.9475,-.31975,.31975,.9475,0,0)" d="m-36.755 103.53h62.232v82.553h-62.232z" fill="#fff" fill-rule="evenodd" stroke="#999" stroke-linecap="square" stroke-linejoin="round"/>
  <g transform="matrix(.33747 -.11388 .11388 .33747 -132.88 13.269)" fill="none" stroke="#999" stroke-width="7.0866">
   <path transform="translate(20.14 36.389)" d="m297.04 492.24h107.76"/>
   <path d="m317.18 544.13h107.76"/>
   <path d="m317.18 559.63h107.76"/>
   <path d="m317.18 575.13h107.76"/>
   <path d="m317.18 590.63h107.76"/>
  </g>
  <g transform="matrix(.33747 -.11388 .11388 .33747 -141.78 -13.109)" fill="none" stroke="#999" stroke-width="7.0866">
   <path transform="translate(20.14 36.389)" d="m297.04 492.24h107.76"/>
   <path d="m317.18 544.13h107.76"/>
   <path d="m317.18 559.63h107.76"/>
   <path d="m317.18 575.13h107.76"/>
   <path d="m317.18 590.63h107.76"/>
  </g>
  <path d="m-1.7231 109.84 58.965-19.899s22.762 78.103 18.628 84.691c-13.993 1.6889-51.197 13.427-51.197 13.427l-26.396-78.219z" fill="#000080" fill-rule="evenodd" stroke="#999" stroke-linecap="square" stroke-linejoin="round"/>
  <path transform="matrix(.78217 -.26395 .26395 .78217 220.65 -249.17)" d="m-385.54875,335.45796h-.816c-1.488.288-2.28.384-3.624.48v.72l.576.048c1.224.096 1.584.552 1.584,1.992v5.64c0,1.32-.432,1.872-1.488,1.992l-.6.048v.72h6.456v-.72l-.6-.048c-1.056-.12-1.488-.672-1.488-1.992v-5.928c1.488-1.344 2.904-2.016 4.248-2.016 1.32,0 2.04.84 2.04,2.4v5.544c0,1.32-.432,1.872-1.488,1.992l-.6.048v.72h6.456v-.72l-.6-.048c-1.056-.12-1.488-.672-1.488-1.992v-5.928c0-1.992-1.368-3.168-3.624-3.168-1.824,0-3.24.6-4.944,2.112v-1.896m19.85175,4.824c-2.88.312-3,.336-4.056.6-2.664.672-4.032,1.848-4.032,3.456 0,1.728 1.56,2.976 3.696,2.976 1.608,0 2.784-.504 4.392-1.848 .456,1.296 1.272,1.848 2.688,1.848 1.008,0 1.8-.288 2.472-.936l-.456-.624c-.408.36-.672.48-1.08.48-.504,0-.936-.264-1.128-.672-.168-.336-.216-.648-.216-1.68v-5.088c0-1.44-.384-2.184-1.368-2.736-.888-.504-2.136-.816-3.24-.816-1.032,0-2.328.288-3.288.696-1.128.504-1.944,1.512-1.944,2.352 0,.576.528,1.056 1.152,1.056 .672,0 1.224-.552 1.224-1.224l-.024-.672c0-.696 1.08-1.248 2.424-1.248 1.704,0 2.784.84 2.784,2.16v1.92m0,4.104c-1.344,1.272-2.352,1.776-3.552,1.776-1.152,0-2.088-.912-2.088-2.064 0-1.608 2.016-2.664 5.64-2.976v3.264m13.20188-8.928h-3.432v-4.368h-.91201c.024,2.952-1.032,4.272-3.38399,4.368v.792h2.01599v8.04c0,1.176.33601,1.92 1.10401,2.4 .62399.384 1.488.624 2.32799.624 1.416,0 2.52001-.552 3.38401-1.68l-.64801-.528c-.81599.936-1.368,1.248-2.08799,1.248-1.224,0-1.8-.984-1.8-3.168v-6.936h3.432v-.792m12.23662,11.64h4.368v-.72l-.6-.048c-1.056-.12-1.488-.672-1.488-1.992v-8.88h-.816c-1.248.288-1.728.336-3.624.48v.72l.576.048c1.224.096 1.584.552 1.584,1.992v5.352c-1.608,1.416-3.024,2.112-4.2,2.112-1.512,0-2.184-.816-2.184-2.64v-8.064h-.816c-1.248.288-1.776.36-3.624.48v.72l.576.048c1.224.096 1.584.552 1.584,1.992v5.016c0,1.2.216,1.872.768,2.496 .648.744 1.56,1.104 2.808,1.104 1.728,0 3.048-.576 5.088-2.232v2.016m9.9285-11.64h-.816c-1.488.288-2.28.384-3.624.48v.72l.576.048c1.224.096 1.584.552 1.584,1.992v5.64c0,1.32-.432,1.872-1.488,1.992l-.6.048v.72h6.456v-.72l-.6-.048c-1.056-.12-1.488-.672-1.488-1.992v-5.88c.864-.96 1.512-1.344 2.208-1.344 .408,0 .576.072 1.008.36 .408.312.792.432 1.224.432 .792,0 1.368-.552 1.368-1.32 0-.792-.72-1.344-1.752-1.344-.552,0-1.128.12-1.704.384-.576.24-.696.336-1.848,1.32-.072.072-.264.24-.504.432v-1.92" fill="#fff"/>
  <path d="m33.83 125.9c-7.7586 0.60736-14.298 6.2053-16.645 11.129-0.65722 1.3784 5.1906 1.1748 5.0572 2.6051-0.53872 5.7723-3.5284-0.65175 6.9473 1.2833 6.9272 1.2796 1.4858 7.4529 0.97029 8.5341-1.2742 2.6722-4.9215 4.625-7.1349 7.0369-1.7092 1.8625 3.8605 3.5105 6.6407 4.5686" fill="none" stroke="#ff0" stroke-linecap="round" stroke-width="2.8032"/>
 </g>
 <g transform="matrix(.35205 .05402 -.05402 .35205 196.23 -72.1)">
  <path d="m-398.85 319.15h174.73v231.78h-174.73z" fill="#fff" fill-rule="evenodd" stroke="#999" stroke-linecap="square" stroke-linejoin="round" stroke-width="2.8077"/>
  <g transform="translate(-661.07 -55.509)" fill="none" stroke="#999" stroke-width="7.0866">
   <path transform="translate(20.14 36.389)" d="m297.04 492.24h107.76"/>
   <path d="m317.18 544.13h107.76"/>
   <path d="m317.18 559.63h107.76"/>
   <path d="m317.18 575.13h107.76"/>
   <path d="m317.18 590.63h107.76"/>
  </g>
  <g transform="translate(-661.07 -133.67)" fill="none" stroke="#999" stroke-width="7.0866">
   <path transform="translate(20.14 36.389)" d="m297.04 492.24h107.76"/>
   <path d="m317.18 544.13h107.76"/>
   <path d="m317.18 559.63h107.76"/>
   <path d="m317.18 575.13h107.76"/>
   <path d="m317.18 590.63h107.76"/>
  </g>
  <path d="m-398.85 319.15h174.73s-9.5636 228.21-26.475 242.03c-38.742-8.0693-148.25-10.243-148.25-10.243v-231.78z" fill="#008000" fill-rule="evenodd" stroke="#999" stroke-linecap="square" stroke-linejoin="round" stroke-width="2.8077"/>
  <path transform="matrix(.39796 0 0 .39796 -211.43 243.02)" d="m-303.1 500.28-45.304-17.736-44.38 19.936 2.868-48.568-32.675-36.047 47.077-12.281 24.186-42.215 26.227 40.978 47.622 9.9573-30.868 37.606 5.2462 48.369z" fill="#d5ffd5" fill-rule="evenodd"/>
  <path transform="matrix(.37757 .12574 -.12574 .37757 -134.24 374.89)" d="m-303.1 500.28-45.304-17.736-44.38 19.936 2.868-48.568-32.675-36.047 47.077-12.281 24.186-42.215 26.227 40.978 47.622 9.9573-30.868 37.606 5.2462 48.369z" fill="#fea" fill-rule="evenodd"/>
  <path transform="matrix(.31749 .23993 -.23993 .31749 -65.621 381.47)" d="m-303.1 500.28-45.304-17.736-44.38 19.936 2.868-48.568-32.675-36.047 47.077-12.281 24.186-42.215 26.227 40.978 47.622 9.9573-30.868 37.606 5.2462 48.369z" fill="#ffe6d5" fill-rule="evenodd"/>
  <path transform="matrix(2.3178 0 0 2.3178 515.02 -436.29)" d="m-385.54875,335.45796h-.816c-1.488.288-2.28.384-3.624.48v.72l.576.048c1.224.096 1.584.552 1.584,1.992v5.64c0,1.32-.432,1.872-1.488,1.992l-.6.048v.72h6.456v-.72l-.6-.048c-1.056-.12-1.488-.672-1.488-1.992v-5.928c1.488-1.344 2.904-2.016 4.248-2.016 1.32,0 2.04.84 2.04,2.4v5.544c0,1.32-.432,1.872-1.488,1.992l-.6.048v.72h6.456v-.72l-.6-.048c-1.056-.12-1.488-.672-1.488-1.992v-5.928c0-1.992-1.368-3.168-3.624-3.168-1.824,0-3.24.6-4.944,2.112v-1.896m19.85175,4.824c-2.88.312-3,.336-4.056.6-2.664.672-4.032,1.848-4.032,3.456 0,1.728 1.56,2.976 3.696,2.976 1.608,0 2.784-.504 4.392-1.848 .456,1.296 1.272,1.848 2.688,1.848 1.008,0 1.8-.288 2.472-.936l-.456-.624c-.408.36-.672.48-1.08.48-.504,0-.936-.264-1.128-.672-.168-.336-.216-.648-.216-1.68v-5.088c0-1.44-.384-2.184-1.368-2.736-.888-.504-2.136-.816-3.24-.816-1.032,0-2.328.288-3.288.696-1.128.504-1.944,1.512-1.944,2.352 0,.576.528,1.056 1.152,1.056 .672,0 1.224-.552 1.224-1.224l-.024-.672c0-.696 1.08-1.248 2.424-1.248 1.704,0 2.784.84 2.784,2.16v1.92m0,4.104c-1.344,1.272-2.352,1.776-3.552,1.776-1.152,0-2.088-.912-2.088-2.064 0-1.608 2.016-2.664 5.64-2.976v3.264m13.20188-8.928h-3.432v-4.368h-.91201c.024,2.952-1.032,4.272-3.38399,4.368v.792h2.01599v8.04c0,1.176.33601,1.92 1.10401,2.4 .62399.384 1.488.624 2.32799.624 1.416,0 2.52001-.552 3.38401-1.68l-.64801-.528c-.81599.936-1.368,1.248-2.08799,1.248-1.224,0-1.8-.984-1.8-3.168v-6.936h3.432v-.792m12.23662,11.64h4.368v-.72l-.6-.048c-1.056-.12-1.488-.672-1.488-1.992v-8.88h-.816c-1.248.288-1.728.336-3.624.48v.72l.576.048c1.224.096 1.584.552 1.584,1.992v5.352c-1.608,1.416-3.024,2.112-4.2,2.112-1.512,0-2.184-.816-2.184-2.64v-8.064h-.816c-1.248.288-1.776.36-3.624.48v.72l.576.048c1.224.096 1.584.552 1.584,1.992v5.016c0,1.2.216,1.872.768,2.496 .648.744 1.56,1.104 2.808,1.104 1.728,0 3.048-.576 5.088-2.232v2.016m9.9285-11.64h-.816c-1.488.288-2.28.384-3.624.48v.72l.576.048c1.224.096 1.584.552 1.584,1.992v5.64c0,1.32-.432,1.872-1.488,1.992l-.6.048v.72h6.456v-.72l-.6-.048c-1.056-.12-1.488-.672-1.488-1.992v-5.88c.864-.96 1.512-1.344 2.208-1.344 .408,0 .576.072 1.008.36 .408.312.792.432 1.224.432 .792,0 1.368-.552 1.368-1.32 0-.792-.72-1.344-1.752-1.344-.552,0-1.128.12-1.704.384-.576.24-.696.336-1.848,1.32-.072.072-.264.24-.504.432v-1.92" fill="#fff"/>
 </g>
</svg>
