<?xml version="1.0" encoding="utf-8"?>
<!-- Generator: Adobe Adobe Illustrator 24.2.0, SVG Export Plug-In . SVG Version: 6.00 Build 0)  -->
<svg version="1.1" id="Ebene_1" xmlns="http://www.w3.org/2000/svg" xmlns:xlink="http://www.w3.org/1999/xlink" x="0px" y="0px"
	 width="498px" height="1014px" viewBox="0 0 498 1014" style="enable-background:new 0 0 498 1014;" xml:space="preserve">
<style type="text/css">
	.st0{fill:#6E655A;}
	.st1{fill:#8A7E6E;}
	.st2{fill:#CFC2B0;}
	.st3{clip-path:url(#SVGID_2_);}
	.st4{fill:#8CC63F;}
	.st5{fill:#5C8526;}
</style>
<polygon class="st0" points="46.05,141.94 118.05,109.29 306.06,176.09 306.13,266.98 105.62,209.61 "/>
<polygon class="st1" points="287.22,974.68 292.12,104.06 285.15,78.33 240.12,33.84 202.06,113.71 205.81,246.66 199.91,402.67 
	204.74,529.72 181.61,974.15 "/>
<polyline class="st0" points="155.35,258.65 401.63,244.49 477.26,286.86 399.22,339.64 149.69,348.67 "/>
<polyline class="st0" points="315.69,388.28 315.16,470.2 84.25,421.91 16.02,354.7 92.59,321.53 "/>
<polygon class="st0" points="289.05,974.84 292.12,142.85 291.99,102.31 285.07,77.84 245.27,158.24 247.23,370.3 244.16,619.13 
	246.67,821.78 234.12,973.98 "/>
<polygon class="st2" points="54.05,135.94 126.05,103.29 314.06,170.09 314.13,260.98 113.62,203.61 "/>
<polyline class="st2" points="147.35,253.65 393.63,239.49 469.26,281.86 391.22,334.64 141.69,343.67 "/>
<polygon class="st0" points="149.36,455.45 386.7,453.81 456.45,506 374.98,561.95 138.22,558.64 "/>
<polyline class="st2" points="325.69,384.28 325.16,466.2 94.25,417.91 26.02,350.7 102.59,317.53 "/>
<polygon class="st2" points="143.36,450.45 380.7,448.81 450.45,501 368.98,556.95 132.22,553.64 "/>
<g>
	<defs>
		<rect id="SVGID_1_" x="104.12" y="955.65" width="298.5" height="26.08"/>
	</defs>
	<clipPath id="SVGID_2_">
		<use xlink:href="#SVGID_1_"  style="overflow:visible;"/>
	</clipPath>
	<g class="st3">
		<g>
			<polygon class="st4" points="390.49,977.81 394.93,963.68 387.72,957.03 399.64,955.65 401.02,967.84 396.3,972.31 			"/>
			<polyline class="st4" points="406.29,976.98 408.5,971.16 409.45,965.46 409.89,962.85 404.62,956.2 415.71,957.59 
				417.65,966.73 398.53,976.43 426.24,974.77 423.47,966.73 388.83,971.44 381.07,976.43 437.32,979.2 436.77,971.99 			"/>
			<polyline class="st5" points="401.23,975.96 403.49,973.39 404.47,970.87 404.91,969.72 399.53,966.79 410.86,967.4 
				412.85,971.44 393.29,975.72 421.63,974.98 418.8,971.44 383.37,973.52 375.43,975.72 432.97,976.94 432.41,973.76 			"/>
			<polygon class="st5" points="397.61,970.97 393.45,971.45 397.95,968.19 400.87,964.79 403.5,961.74 405.17,964.72 
				421.33,972.15 			"/>
			<polyline class="st5" points="421.19,961.26 421.26,969.44 423,969.3 426.53,976.45 428.41,966.94 			"/>
		</g>
		<g>
			<polygon class="st4" points="351.74,977.81 356.17,963.68 348.97,957.03 360.88,955.65 362.26,967.84 357.55,972.31 			"/>
			<polyline class="st4" points="367.53,976.98 369.75,971.16 370.7,965.46 371.13,962.85 365.87,956.2 376.95,957.59 
				378.89,966.73 359.77,976.43 387.48,974.77 384.71,966.73 350.07,971.44 342.32,976.43 398.56,979.2 398.01,971.99 			"/>
			<polyline class="st5" points="362.47,975.96 364.74,973.39 365.71,970.87 366.15,969.72 360.77,966.79 372.11,967.4 
				374.09,971.44 354.53,975.72 382.88,974.98 380.04,971.44 344.61,973.52 336.67,975.72 394.21,976.94 393.65,973.76 			"/>
			<polygon class="st5" points="358.85,970.97 354.69,971.45 359.2,968.19 362.11,964.79 364.75,961.74 366.41,964.72 
				382.57,972.15 			"/>
			<polyline class="st5" points="382.43,961.26 382.5,969.44 384.24,969.3 387.77,976.45 389.65,966.94 			"/>
		</g>
		<g>
			<polygon class="st4" points="312.98,977.81 317.41,963.68 310.21,957.03 322.12,955.65 323.51,967.84 318.79,972.31 			"/>
			<polyline class="st4" points="328.77,976.98 330.99,971.16 331.94,965.46 332.37,962.85 327.11,956.2 338.19,957.59 
				340.13,966.73 321.01,976.43 348.72,974.77 345.95,966.73 311.32,971.44 303.56,976.43 359.8,979.2 359.25,971.99 			"/>
			<polyline class="st5" points="323.71,975.96 325.98,973.39 326.95,970.87 327.39,969.72 322.01,966.79 333.35,967.4 
				335.33,971.44 315.77,975.72 344.12,974.98 341.28,971.44 305.85,973.52 297.92,975.72 355.46,976.94 354.89,973.76 			"/>
			<polygon class="st5" points="320.09,970.97 315.93,971.45 320.44,968.19 323.35,964.79 325.99,961.74 327.65,964.72 
				343.81,972.15 			"/>
			<polyline class="st5" points="343.68,961.26 343.74,969.44 345.48,969.3 349.02,976.45 350.89,966.94 			"/>
		</g>
		<g>
			<polygon class="st4" points="274.22,977.81 278.65,963.68 271.45,957.03 283.36,955.65 284.75,967.84 280.03,972.31 			"/>
			<polyline class="st4" points="290.01,976.98 292.23,971.16 293.18,965.46 293.61,962.85 288.35,956.2 299.43,957.59 
				301.37,966.73 282.25,976.43 309.96,974.77 307.19,966.73 272.56,971.44 264.8,976.43 321.04,979.2 320.49,971.99 			"/>
			<polyline class="st5" points="284.95,975.96 287.22,973.39 288.19,970.87 288.64,969.72 283.25,966.79 294.59,967.4 
				296.57,971.44 277.02,975.72 305.36,974.98 302.53,971.44 267.09,973.52 259.16,975.72 316.7,976.94 316.13,973.76 			"/>
			<polygon class="st5" points="281.33,970.97 277.17,971.45 281.68,968.19 284.59,964.79 287.23,961.74 288.89,964.72 
				305.06,972.15 			"/>
			<polyline class="st5" points="304.92,961.26 304.99,969.44 306.72,969.3 310.26,976.45 312.13,966.94 			"/>
		</g>
		<g>
			<polygon class="st4" points="235.46,977.81 239.89,963.68 232.69,957.03 244.61,955.65 245.99,967.84 241.27,972.31 			"/>
			<polyline class="st4" points="251.25,976.98 253.47,971.16 254.42,965.46 254.86,962.85 249.59,956.2 260.68,957.59 
				262.61,966.73 243.5,976.43 271.2,974.77 268.43,966.73 233.8,971.44 226.04,976.43 282.29,979.2 281.73,971.99 			"/>
			<polyline class="st5" points="246.19,975.96 248.46,973.39 249.43,970.87 249.88,969.72 244.49,966.79 255.83,967.4 
				257.82,971.44 238.26,975.72 266.6,974.98 263.77,971.44 228.34,973.52 220.4,975.72 277.94,976.94 277.37,973.76 			"/>
			<polygon class="st5" points="242.58,970.97 238.41,971.45 242.92,968.19 245.84,964.79 248.47,961.74 250.14,964.72 
				266.3,972.15 			"/>
			<polyline class="st5" points="266.16,961.26 266.23,969.44 267.96,969.3 271.5,976.45 273.37,966.94 			"/>
		</g>
		<g>
			<polygon class="st4" points="196.7,977.81 201.14,963.68 193.93,957.03 205.85,955.65 207.23,967.84 202.51,972.31 			"/>
			<polyline class="st4" points="212.5,976.98 214.71,971.16 215.66,965.46 216.1,962.85 210.83,956.2 221.92,957.59 223.86,966.73 
				204.74,976.43 232.45,974.77 229.68,966.73 195.04,971.44 187.28,976.43 243.53,979.2 242.97,971.99 			"/>
			<polyline class="st5" points="207.44,975.96 209.7,973.39 210.68,970.87 211.12,969.72 205.74,966.79 217.07,967.4 
				219.06,971.44 199.5,975.72 227.84,974.98 225.01,971.44 189.58,973.52 181.64,975.72 239.18,976.94 238.62,973.76 			"/>
			<polygon class="st5" points="203.82,970.97 199.66,971.45 204.16,968.19 207.08,964.79 209.71,961.74 211.38,964.72 
				227.54,972.15 			"/>
			<polyline class="st5" points="227.4,961.26 227.47,969.44 229.2,969.3 232.74,976.45 234.62,966.94 			"/>
		</g>
		<g>
			<polygon class="st4" points="157.95,977.81 162.38,963.68 155.17,957.03 167.09,955.65 168.47,967.84 163.76,972.31 			"/>
			<polyline class="st4" points="173.74,976.98 175.96,971.16 176.91,965.46 177.34,962.85 172.08,956.2 183.16,957.59 
				185.1,966.73 165.98,976.43 193.69,974.77 190.92,966.73 156.28,971.44 148.52,976.43 204.77,979.2 204.22,971.99 			"/>
			<polyline class="st5" points="168.68,975.96 170.95,973.39 171.92,970.87 172.36,969.72 166.98,966.79 178.31,967.4 
				180.3,971.44 160.74,975.72 189.09,974.98 186.25,971.44 150.82,973.52 142.88,975.72 200.42,976.94 199.86,973.76 			"/>
			<polygon class="st5" points="165.06,970.97 160.9,971.45 165.41,968.19 168.32,964.79 170.96,961.74 172.62,964.72 
				188.78,972.15 			"/>
			<polyline class="st5" points="188.64,961.26 188.71,969.44 190.45,969.3 193.98,976.45 195.86,966.94 			"/>
		</g>
		<g>
			<polygon class="st4" points="119.19,977.81 123.62,963.68 116.42,957.03 128.33,955.65 129.72,967.84 125,972.31 			"/>
			<polyline class="st4" points="134.98,976.98 137.2,971.16 138.15,965.46 138.58,962.85 133.32,956.2 144.4,957.59 146.34,966.73 
				127.22,976.43 154.93,974.77 152.16,966.73 117.52,971.44 109.77,976.43 166.01,979.2 165.46,971.99 			"/>
			<polyline class="st5" points="129.92,975.96 132.19,973.39 133.16,970.87 133.6,969.72 128.22,966.79 139.56,967.4 
				141.54,971.44 121.98,975.72 150.33,974.98 147.49,971.44 112.06,973.52 104.13,975.72 161.67,976.94 161.1,973.76 			"/>
			<polygon class="st5" points="126.3,970.97 122.14,971.45 126.65,968.19 129.56,964.79 132.2,961.74 133.86,964.72 150.02,972.15 
							"/>
			<polyline class="st5" points="149.89,961.26 149.95,969.44 151.69,969.3 155.23,976.45 157.1,966.94 			"/>
		</g>
		<g>
			<polygon class="st4" points="80.43,977.81 84.86,963.68 77.66,957.03 89.57,955.65 90.96,967.84 86.24,972.31 			"/>
			<polyline class="st4" points="96.22,976.98 98.44,971.16 99.39,965.46 99.82,962.85 94.56,956.2 105.64,957.59 107.58,966.73 
				88.46,976.43 116.17,974.77 113.4,966.73 78.77,971.44 71.01,976.43 127.25,979.2 126.7,971.99 			"/>
			<polyline class="st5" points="91.16,975.96 93.43,973.39 94.4,970.87 94.85,969.72 89.46,966.79 100.8,967.4 102.78,971.44 
				83.22,975.72 111.57,974.98 108.74,971.44 73.3,973.52 65.37,975.72 122.91,976.94 122.34,973.76 			"/>
			<polygon class="st5" points="87.54,970.97 83.38,971.45 87.89,968.19 90.8,964.79 93.44,961.74 95.1,964.72 111.27,972.15 			"/>
			<polyline class="st5" points="111.13,961.26 111.2,969.44 112.93,969.3 116.47,976.45 118.34,966.94 			"/>
		</g>
	</g>
</g>
<polygon class="st0" points="132.31,553.62 138.77,553.74 138.28,558.62 "/>
<polygon class="st0" points="205.55,238.16 246.16,247.92 249.92,242.71 205.28,229.83 "/>
<polygon class="st0" points="46.13,141.94 54.12,135.93 55.57,137.8 "/>
</svg>
