<?xml version="1.0" encoding="UTF-8" standalone="no"?>
<svg
   xmlns:dc="http://purl.org/dc/elements/1.1/"
   xmlns:cc="http://creativecommons.org/ns#"
   xmlns:rdf="http://www.w3.org/1999/02/22-rdf-syntax-ns#"
   xmlns:svg="http://www.w3.org/2000/svg"
   xmlns="http://www.w3.org/2000/svg"
   xmlns:sodipodi="http://sodipodi.sourceforge.net/DTD/sodipodi-0.dtd"
   xmlns:inkscape="http://www.inkscape.org/namespaces/inkscape"
   version="1.0"
   width="795"
   height="655"
   viewBox="0 0 636 524.00001"
   preserveAspectRatio="xMidYMid meet"
   id="svg9101"
   inkscape:version="0.91 r13725"
   sodipodi:docname="school-colour.svg">
  <defs
     id="defs9171" />
  <sodipodi:namedview
     pagecolor="#ffffff"
     bordercolor="#666666"
     borderopacity="1"
     objecttolerance="10"
     gridtolerance="10"
     guidetolerance="10"
     inkscape:pageopacity="0"
     inkscape:pageshadow="2"
     inkscape:window-width="1916"
     inkscape:window-height="1035"
     id="namedview9169"
     showgrid="false"
     fit-margin-top="0"
     fit-margin-left="0"
     fit-margin-right="0"
     fit-margin-bottom="0"
     units="px"
     inkscape:zoom="0.35739105"
     inkscape:cx="576.05733"
     inkscape:cy="575.12671"
     inkscape:window-x="4"
     inkscape:window-y="1"
     inkscape:window-maximized="1"
     inkscape:current-layer="g9105" />
  <metadata
     id="metadata9103">
Created by potrace 1.15, written by Peter Selinger 2001-2017
<rdf:RDF>
  <cc:Work
     rdf:about="">
    <dc:format>image/svg+xml</dc:format>
    <dc:type
       rdf:resource="http://purl.org/dc/dcmitype/StillImage" />
    <dc:title></dc:title>
  </cc:Work>
</rdf:RDF>
</metadata>
  <g
     transform="matrix(0.1,0,0,-0.1,244.898,349.96333)"
     id="g9105"
     style="fill:#000000;stroke:none">
    <g
       id="g9932"
       transform="matrix(1.7132784,0,0,1.8424253,-2708.2373,-2832.246)">
      <path
         sodipodi:nodetypes="cccccccccc"
         inkscape:connector-curvature="0"
         id="path9871"
         d="m 2855.9675,2740.8302 -2.8082,-36.507 -1089.5923,-8.4247 -468.974,2.8082 -120.7539,14.0412 8.4247,28.0823 699.2487,8.4247 553.2209,0 190.9594,-5.6166 z"
         style="fill:#e7e3eb;fill-opacity:1;fill-rule:evenodd;stroke:none;stroke-width:8px;stroke-linecap:butt;stroke-linejoin:miter;stroke-opacity:1" />
      <path
         inkscape:connector-curvature="0"
         id="path9865"
         d="m 1173.7527,2702.9637 -1003.42896,0 7.40538,-177.7291 37.0269,0 11.10807,-1725.45356 -51.83766,-7.40536 0,-166.62104 322.13403,-11.10808 2354.91084,7.40536 977.5101,0 7.4054,-3.70272 -3.7027,177.72912 -48.135,3.70272 3.7027,1255.21196 0,473.9443 44.4323,-3.7027 3.7027,96.2699 0,88.8645 -251.7829,-11.108 -714.6192,3.7027 -1199.6715,0 z"
         style="fill:#d5d0d9;fill-opacity:1;fill-rule:evenodd;stroke:none;stroke-width:8px;stroke-linecap:butt;stroke-linejoin:miter;stroke-opacity:1" />
      <path
         inkscape:connector-curvature="0"
         id="path9891"
         d="m 2302.5711,2423.5005 c 0,0 0.2164,-288.5055 -16.8493,-289.2475 -64.5893,-2.8082 -205.0007,10e-5 -205.0007,10e-5 l 14.0412,283.6309 z"
         style="fill:#d8eff1;fill-opacity:1;fill-rule:evenodd;stroke:none;stroke-width:8px;stroke-linecap:butt;stroke-linejoin:miter;stroke-opacity:1"
         sodipodi:nodetypes="csccc" />
      <path
         inkscape:connector-curvature="0"
         id="path9875"
         d="m 379.11073,2255.0068 c 0,0 -25.27405,-322.9462 -8.42468,-325.7544 16.84937,-2.8082 278.01453,2.8082 278.01453,2.8082 l -2.80823,314.5215 z"
         style="fill:#d8eff1;fill-opacity:1;fill-rule:evenodd;stroke:none;stroke-width:8px;stroke-linecap:butt;stroke-linejoin:miter;stroke-opacity:1" />
      <path
         inkscape:connector-curvature="0"
         id="path9873"
         d="m 1496.7854,1255.2778 -2.8083,-457.74116 1041.8524,5.61648 0,210.61708 -2.8082,247.124 -179.7266,-5.6164 -283.6309,14.0411 0,-365.06962 -2.8083,-95.47976 -98.2879,-5.6164 -5.6165,67.39744 -5.6165,387.53544 -165.6854,0 -272.3981,0 z"
         style="fill:#928b96;fill-opacity:1;fill-rule:evenodd;stroke:none;stroke-width:8px;stroke-linecap:butt;stroke-linejoin:miter;stroke-opacity:1" />
      <path
         sodipodi:nodetypes="cccccccccccccccccccccccccccccscccccccccccccccc"
         inkscape:connector-curvature="0"
         id="path9867"
         d="m 2777.3371,794.7284 -67.3974,-8.42464 -230.2747,2.80824 -511.0974,2.80816 -550.4126,2.80824 -14.0412,210.6171 5.6164,289.2475 205.0007,0 634.6594,5.6164 373.4943,0 -2.8082,-395.96012 2.8082,-115.13728 109.5208,0 -5.6164,345.4119 0,196.576 50.5481,5.6164 5.6165,53.3563 0,126.3703 -174.1102,-2.8082 -390.3436,-5.6165 -95.4797,8.4247 -50.5481,53.3564 -78.6304,11.2329 -87.055,-39.3152 -8.4248,-33.6988 -205.0005,2.8083 -238.6994,-2.8083 -143.2196,2.8083 -67.3975,0 c 0,0 -11.2329,-106.7127 -8.4246,-120.7539 2.8082,-14.0411 14.0411,-50.548 14.0411,-50.548 l 33.6987,-11.2329 22.4658,-89.8633 5.6165,-398.76832 -2.8082,-44.93168 -61.7811,-2.80824 -5.6164,-81.43856 -70.2057,-8.42472 0,-75.82208 996.9209,0 685.2075,-8.42472 -2.8083,87.05504 -61.781,5.61648 -8.4247,42.12339 5.6165,33.69877 z"
         style="fill:#e7e3eb;fill-opacity:1;fill-rule:evenodd;stroke:none;stroke-width:8px;stroke-linecap:butt;stroke-linejoin:miter;stroke-opacity:1" />
      <path
         inkscape:connector-curvature="0"
         id="path9869"
         d="m 1996.6498,1575.4157 -67.3974,-25.274 -42.1234,-89.8633 8.4247,-58.9728 58.9727,-56.1646 131.9867,-5.6164 25.2741,28.0823 30.8905,50.5481 0,30.8904 -11.2329,53.3564 -25.2741,39.3152 -56.1645,28.0823 z"
         style="fill:#f2f0ea;fill-opacity:1;fill-rule:evenodd;stroke:none;stroke-width:8px;stroke-linecap:butt;stroke-linejoin:miter;stroke-opacity:1" />
      <path
         sodipodi:nodetypes="csccc"
         style="fill:#d8eff1;fill-opacity:1;fill-rule:evenodd;stroke:none;stroke-width:8px;stroke-linecap:butt;stroke-linejoin:miter;stroke-opacity:1"
         d="m 1926.2686,2423.5005 c 0,0 0.2164,-288.5055 -16.8493,-289.2475 -64.5893,-2.8082 -205.0007,10e-5 -205.0007,10e-5 l 14.0412,283.6309 z"
         id="path9889"
         inkscape:connector-curvature="0" />
      <path
         inkscape:connector-curvature="0"
         id="path9887"
         d="m 1555.5826,2431.9252 c 0,0 -8.4246,-297.6722 -25.274,-300.4804 -16.8494,-2.8082 -207.8089,-2.8082 -207.8089,-2.8082 l -11.2329,294.8639 z"
         style="fill:#d8eff1;fill-opacity:1;fill-rule:evenodd;stroke:none;stroke-width:8px;stroke-linecap:butt;stroke-linejoin:miter;stroke-opacity:1"
         sodipodi:nodetypes="csccc" />
      <path
         inkscape:connector-curvature="0"
         id="path9897"
         d="m 1917.8439,1929.2524 c 0,0 0.2164,-288.5055 -16.8493,-289.2475 -64.5893,-2.8082 -205.0007,1e-4 -205.0007,1e-4 l 14.0412,283.6309 z"
         style="fill:#d8eff1;fill-opacity:1;fill-rule:evenodd;stroke:none;stroke-width:8px;stroke-linecap:butt;stroke-linejoin:miter;stroke-opacity:1"
         sodipodi:nodetypes="csccc" />
      <path
         inkscape:connector-curvature="0"
         id="path9915"
         d="m 2718.3643,3395.1472 c -19.6576,-2.8082 -1314.2505,-8.4247 -1314.2505,-8.4247 l -101.0962,0 -19.6576,-36.5069 5.6165,-421.2342 5.6165,-8.4247 241.5075,-2.8082 306.0969,0 707.6733,-2.8083 185.343,11.233 5.6165,241.5075 2.8082,160.069 -5.6165,39.3152 -2.8082,11.2329 -2.8083,11.2329 z"
         style="fill:#cad0ca;fill-opacity:1;fill-rule:evenodd;stroke:none;stroke-width:8px;stroke-linecap:butt;stroke-linejoin:miter;stroke-opacity:1" />
      <path
         sodipodi:nodetypes="ccccccccccccccccccccccccccccccccccc"
         inkscape:connector-curvature="0"
         style="fill:#e4e5b0;fill-opacity:1;fill-rule:evenodd;stroke:none;stroke-width:8px;stroke-linecap:butt;stroke-linejoin:miter;stroke-opacity:1"
         d="m 2384.6876,3259.3939 -72.3594,-13.8282 -28.7344,-52.1406 -3.1875,-89.3906 2.4063,-0.078 15.6875,-38.2344 16.9375,-14.9219 c 0.8713,-2.1695 2.4302,-4.7016 5.4062,-5.2968 5.3205,-1.0642 36.1876,-15.9532 36.1876,-15.9532 l 78.7415,19.149 4.2531,6.3797 15.9666,21.287 8.5075,64.9187 -2.125,58.5156 -19.1562,29.7969 -41.5,23.4219 -17.0313,6.375 z m 6.3906,-51.0782 28.7344,-21.2812 12.7656,-26.5938 0,-43.6406 -8.5156,-32.9843 -20.2188,-13.8282 -31.9218,-10.6406 -23.4095,-0.01 -14.903,17.0253 -2.6406,-3.0781 -6.9375,3.0781 -7.4376,14.9063 -5.1406,11.7344 0.875,-0.031 -9.5781,39.375 30.8701,63.8411 z"
         id="path9928" />
      <path
         id="path9923"
         transform="matrix(8,0,0,-8,0,4000)"
         d="m 268.55664,92.841797 -9.04492,1.728515 -3.5918,6.517578 -0.39844,11.17383 0.30079,0.01 1.96093,4.7793 2.11719,1.86524 c 0.10891,0.27118 0.30377,0.5877 0.67578,0.6621 0.66506,0.13302 4.52344,1.99415 4.52344,1.99415 l 8.24609,-2.12696 3.45899,-3.45898 1.72851,-8.38086 -0.26562,-7.31445 -2.39453,-3.724614 -5.1875,-2.927734 -2.12891,-0.796875 z m 0.79883,6.384765 3.5918,2.660158 1.5957,3.32422 0,5.45508 -1.06445,4.12304 -2.52735,1.72852 -3.99023,1.33008 -2.66016,-0.79688 -2.1289,-1.33008 -0.33008,0.38477 -0.86719,-0.38477 -0.92969,-1.86328 -0.64258,-1.4668 0.10938,0.004 -1.19727,-4.92187 4.25782,-6.91602 6.7832,-1.330078 z"
         style="fill:#e4e5b0;fill-opacity:1;fill-rule:evenodd;stroke:none;stroke-width:8px;stroke-linecap:butt;stroke-linejoin:miter;stroke-opacity:1"
         inkscape:connector-curvature="0" />
      <path
         id="path9107"
         transform="matrix(8,0,0,-8,0,4000)"
         d="m 162.5,75 -1.625,2.75 c -1.375,2.25 -1.5,8.5 -1,30.375 l 0.75,27.5 L 173,136 l 12.375,0.375 -0.875,5.75 c -0.375,3.125 -0.75,7.625 -0.75,9.875 l 0,4.25 -18.75,0 c -17.875,0 -18.75,0.125 -18.75,2.5 0,2.5 -0.875,2.5 -62.5,2.5 l -62.5,0 0,11.875 c 0,11.875 0,11.875 3.125,11.875 l 3.125,0 0,107.5 0,107.5 -3.125,0 c -3.125,0 -3.125,0 -3.125,11.875 l 0,11.875 221.625,-0.25 c 61.40571,-0.063 115.67776,-0.22243 153.61523,-0.41211 l 83.39454,0.33203 -0.0899,-15.77344 L 480,400.375 l -6.30469,-0.0918 0,-42.6582 c 0.058,-2.33676 0.11434,-4.56465 0.17969,-7.625 0.375,-23.75 0.875,-71 1,-105 l 0.24219,-60.11914 3.90625,-0.17383 1.19531,-0.40039 -0.084,-22.58984 -0.14844,0.0293 0.0137,-0.4961 -61.25,0 c -60.375,0 -61.25,0 -61.25,-2.5 0,-2.375 -0.875,-2.5 -19.5,-2.5 l -19.5,0 0.75,-3.875 c 0.375,-2.125 0.75,-6.625 0.75,-10 l 0,-6 2.11719,-0.19727 9.38086,-0.38281 11.55859,-0.49219 0.20313,-20.10937 L 343.75,100 c 0.5,-14.375 0.25,-20.125 -1,-22.25 L 341.25,75 251.875,75 162.5,75 Z m -0.625,3.125 90,0 90,0 0.19727,6.509766 0,46.734374 -0.49219,2.70508 -20.1582,0.65625 C 320.31752,134.35703 320,133.7232 320,132.5 c 0,-2 -0.875,-2.5 -3.875,-2.5 -2.75,0 -4,0.625 -4.5,2.5 -0.625,2.5 -1.75,2.5 -59.125,2.5 -57.375,0 -58.5,0 -59.125,-2.5 -0.875,-3.5 -7.125,-3.5 -8,0 -0.625,2.375 -1.5,2.625 -12.125,2.25 l -11.375,-0.375 0,-28.125 0,-28.125 z m 31.875,58.75 58.75,0 58.75,0 0,3.125 c 0,1.75 -0.375,6 -0.75,9.375 l -0.75,6.375 -58.75,-0.125 -58.75,0 0.75,-6.25 c 0.375,-3.5 0.75,-7.625 0.75,-9.375 l 0,-3.125 z m 86.79883,21.22656 c 60.29297,0.005 75.70117,0.42969 75.70117,1.52344 0,1.375 -20.125,1.625 -104.375,1.625 -82.625,0 -104.375,-0.375 -104.375,-1.625 0,-1.125 21.75,-1.5 104.375,-1.5 10.53125,-0.0156 20.06055,-0.0242 28.67383,-0.0234 z m 198.07617,4.02344 0.14648,2.53711 -0.3457,17.84961 -4.89062,0.61133 -224.41016,-0.24805 -226,-0.375 -0.375,-9.375 -0.375,-9.375 209.25,0 c 115.125,0 217.75,-0.375 228.125,-0.875 l 18.875,-0.75 z M 28.75,185 l 221.875,0.125 221.875,0.25 0.25,103.875 c 0.0304,20.56888 0.0685,36.47452 0.11914,48.76172 L 472.09766,400.25977 411,399.375 c -38,-0.5 -69.25,-1 -69.375,-1.125 -0.25,-0.125 0,-14.75 0.5,-32.375 0.56279,-24.98778 0.92571,-31.00679 2.26953,-32.23438 l 1.68164,-0.24609 2.03711,0 0.0957,-3.87305 0.041,1.10352 0.25,-10.125 0.25,-10.125 -41.5,-0.625 c -36.125,-0.625 -41.5,-1 -42.5,-2.75 -4.125,-7.375 -21.625,-7.375 -25.75,0 -1,1.875 -5.875,2.125 -42.625,2.75 L 187.8906,309.87891 155,310.375 155,322 c 0,9.625 0.375,11.75 1.875,11.75 1,0 1.875,1.125 1.875,2.5 0,1.375 0.875,2.5 1.875,2.5 1.625,0 1.875,4.125 1.875,30 l 0,30 -50.875,0 c -28.125,0 -58.125,0.375 -67,0.875 l -15.875,0.75 0,-107.625 0,-107.75 z m 222.60352,118.90039 c 1.76618,-0.0479 3.26843,0.27036 4.02148,0.47461 4.625,1.375 8.875,5 10.875,9.125 l 0.39844,0.85156 0.59765,6.87696 -1.67968,3.91796 c -0.0241,0.0397 -0.042,0.0628 -0.0664,0.10352 -3.375,6.375 -14.125,9.375 -20.875,5.875 -10,-5.125 -9.25,-20.5 1.125,-25.5 1.80722,-1.26268 3.83733,-1.67671 5.60352,-1.72461 z m -4.69727,5.19141 1.00195,1.0039 8.62305,6.81836 c 0,0 -9.82557,14.23641 -9.02344,13.03321 0.80213,-1.2032 10.62696,-12.43165 10.62696,-12.43165 l -0.19922,-1.0039 -7.6211,-5.81445 -3.4082,-1.60547 z m 100.71875,1.7832 0.22461,4.44922 -0.34375,15.71094 -0.21484,1.39453 -2.53125,0.15429 c -0.70821,-0.11291 -1.226,-0.45385 -1.56055,-1.04101 0.57442,-0.25083 1.41211,-0.61328 1.41211,-0.61328 l 0.96484,-0.42969 0.4668,-4.29688 c 0.21918,-0.56207 0.33203,-2.06773 0.33203,-4.70312 l 0.125,-6.5 -38.625,0 c -24.5,0 -39,-0.5 -39.5,-1.25 -0.5,-0.875 9.75,-1.25 29.75,-1.25 16.75,0 34.75,-0.375 40,-0.75 l 9.5,-0.875 z m -188.82812,0.67188 c 0.64062,-0.0469 1.39062,0.0156 2.07812,0.20312 1.375,0.375 19.125,0.75 39.25,0.75 24.25,0 36.5,0.375 35.625,1.25 -0.75,0.75 -16.375,1.375 -39.25,1.5 l -38.125,0.375 0.375,8.375 c 0.375,5.625 0,8.5 -0.875,8.5 -1.5,0 -2,-19 -0.5,-20.5 0.25,-0.25 0.78125,-0.40625 1.42188,-0.45312 z M 343.75,316.875 343.875,320 c 0,0.37267 0.0325,0.7903 0.0742,1.21289 l -0.0176,-0.041 0.42969,8.14843 -1.83594,0.63672 c -0.0144,-0.18548 -0.0254,-0.37526 -0.0254,-0.58203 0,-3 -0.25,-3.125 -8.25,-3.125 -7.75,0 -8.125,0.125 -7.75,2.75 0.375,3.25 4,3 -39.75,2.5 l -23.25,-0.25 2,-3.125 c 0.43446,-0.62755 0.80892,-1.32215 1.13281,-1.99805 0,0 1.8019,-1.87182 2.13477,-3.07422 0.40643,-1.46813 -0.30469,-4.56054 -0.30469,-4.56054 l 0,-0.99414 L 306,317.25 343.75,316.875 Z M 160,317.5 l 37.375,0 37.375,0 0.875,3.75 c 0.375,2 1.875,5 3.125,6.625 l 2.375,3 -15.125,0.75 c -8.375,0.5 -22.625,0.875 -31.875,0.875 l -16.625,0 0,-3.125 c 0,-3 -0.375,-3.125 -7.5,-3.125 -7.125,0 -7.5,0.125 -7.5,3.125 0,1.75 -0.5,3.125 -1.25,3.125 -0.75,0 -1.25,-3.375 -1.25,-7.5 l 0,-7.5 z m 168.75,9.75 4.75,0.875 c 2.5,0.5 4.75,1 4.75,1 0.125,0.125 0.5,16.125 0.875,35.5 l 0.75,35.375 -5.625,0 -5.5,0 0,-36.375 0,-36.375 z m -161.87695,0.58398 c 0.36914,0.0176 0.75195,0.0723 1.12695,0.16602 1.375,0.375 3.625,0.75 4.875,0.75 2,0 2.125,2.375 2.25,32.125 0,9.04577 0.13172,17.51048 0.3418,23.84766 l -0.0586,14.91211 C 164.04627,401.1437 165.42025,401.81003 164.5,365 c -0.5,-19.25 -0.5,-35.625 0,-36.375 0.28125,-0.5625 1.26562,-0.84375 2.37305,-0.79102 z M 252.5,333.875 c 57.625,0 75,0.375 75,1.5 0,1.125 -17.375,1.5 -75,1.625 -62,0.125 -75,-0.125 -75,-1.5 0,-1.375 13.125,-1.625 75,-1.625 z m -75,5 75.125,0.125 75.25,0 -0.875,13.25 c -0.375,7.25 -0.75,20.625 -0.75,29.875 l 0,16.625 -3.625,0 -3.5,0 L 318.25,371 c -0.5,-15.375 -1,-28 -1.25,-28.125 -0.125,-0.125 -13.625,-0.75 -29.875,-1.125 l -29.625,-0.875 0,28.875 0,29 -4.75,0 -4.875,0 -0.75,-16 c -0.5,-8.75 -0.875,-21 -0.875,-27.375 0,-6.25 0.50195,-12.35156 -0.12305,-12.72656 -0.5,-0.375 -15.00195,-0.39844 -31.00195,-0.89844 l -28.875,-0.875 0,28.75 0,28.75 -7.625,0.875 c -0.17883,0.018 -0.32594,0.0399 -0.5,0.0586 l -0.82422,-20.61328 c 0.0419,-3.1095 0.0742,-6.40543 0.0742,-10.19531 l 0.125,-29.625 z m 11.625,4.875 28.125,0 26.7207,0.40039 0.6543,18.59961 c -0.5,10.375 -0.875,22.75 -0.875,27.5 l 0,8.5 -28.125,0 -28.125,0 0,-21.75 c 0,-11.875 0.375,-24.25 0.75,-27.5 l 0.875,-5.75 z m 71.25,0 28,0 27.875,0 0,14.125 c 0,7.875 -0.375,20.25 -0.875,27.5 l -0.75,13.375 -27.125,0 c -27.125,0 -27.25,0 -28,-2.875 -1,-3.625 -1,-22.25 0.125,-38.75 l 0.75,-13.375 z M 22.5,400.875 l 46,0.75 c 25.25,0.5 55,0.875 66.25,0.875 l 20.25,0 0,3.625 c 0,3.375 -0.375,3.75 -4.625,4.125 -4.625,0.375 -4.75,0.5 -5.125,5.5 -0.25,4.125 -1,5.375 -3.125,6 -3.75,1 -79.625,1 -101.75,-0.125 l -17.875,-0.75 0,-10 0,-10 z m 410.125,0.375 46,0 0.31836,5.33984 -0.0898,15.79883 -43.52344,-0.24023 c -16.73823,-0.22753 -44.19771,-0.4354 -78.12696,-0.58203 l -0.14257,-2.25391 c 0.0911,0.0164 0.12256,-1.09619 0.18945,-3.4375 0.25,-4.5 0.125,-4.625 -4.125,-4.625 -4.125,0 -4.375,-0.25 -4.375,-4.125 l 0,-4.25 19,-0.75 c 10.375,-0.5 39.625,-0.875 64.875,-0.875 z m -276.375,1.25 95.625,0 95.625,0 0,4.5 0,4.625 -4.625,-0.875 C 340.25,410.375 297.25,410 247.25,410 l -91,0 0,-3.75 0,-3.75 z m -8.75,10.25 104.25,0 103.27148,0.12305 0.082,8.68164 C 335.82532,421.47354 315.1852,421.40878 293.5,421.375 l -146,-0.125 0,-4.25 0,-4.25 z"
         inkscape:connector-curvature="0" />
      <path
         sodipodi:nodetypes="csccc"
         style="fill:#d8eff1;fill-opacity:1;fill-rule:evenodd;stroke:none;stroke-width:8px;stroke-linecap:butt;stroke-linejoin:miter;stroke-opacity:1"
         d="m 808.76956,2240.9657 c 0,0 -8.42469,-294.864 8.42468,-297.6722 16.84937,-2.8082 210.61706,5.6165 210.61706,5.6165 l 16.8493,297.6721 z"
         id="path9877"
         inkscape:connector-curvature="0" />
      <path
         id="path9109"
         d="m 1540,1015 0,-195 196,0 197,0 -7,188 c -4,103 -10,189 -12,191 -3,3 -45,7 -94,9 -89,4 -90,4 -91,-19 -1,-15 -3,-18 -6,-8 -5,22 -33,29 -115,29 l -68,0 0,-195 z m 160,0 0,-165 -65,0 -65,0 0,165 0,165 65,0 65,0 0,-165 z m 196,134 c -3,-17 -6,-92 -6,-165 l 0,-134 -64,0 -65,0 5,158 c 2,86 4,160 4,165 0,4 30,7 66,7 l 67,0 -7,-31 z"
         inkscape:connector-curvature="0" />
      <path
         sodipodi:nodetypes="scccccsccccccccsccccsccscccccccccsc"
         inkscape:connector-curvature="0"
         id="path9111"
         transform="matrix(8,0,0,-8,0,4000)"
         d="m 292.69141,348.74414 c -7.04947,0.0587 -6.60547,3.23242 -7.31641,25.88086 L 284.75,395 l -4.46094,0 0.5385,-40.53102 c 0.98933,-0.21584 0.0313,-4.11817 -0.20256,-4.46898 -0.375,-0.75 -4.375,-1.25 -8.875,-1.25 l -8,0 0,24.375 0,24.375 24.625,0 24.5,0 -0.75,-23.25 c -0.375,-12.75 -1,-23.625 -1.5,-24 -0.375,-0.375 -5.625,-1 -11.75,-1.25 -2.53125,-0.11719 -4.55679,-0.26941 -6.18359,-0.25586 z m -15.08985,2.36719 1.1543,43.88867 -3.88086,0 -9.875,0 0,-6.625 c 0,-3.75 0.375,-13.625 0.875,-21.875 l 0.75,-15.25 7.375,0 c 1.4181,0 2.60824,-0.0519 3.60156,-0.13867 z M 292.5,352.5 l 7.875,0 7.875,0 -0.125,20.625 0,20.625 -8.625,0 -8.625,0 0.875,-4.75 c 0.375,-2.5 0.75,-11.75 0.75,-20.625 z" />
      <path
         inkscape:connector-curvature="0"
         id="path9919"
         d="m 1751.5403,3250.8844 -65.9753,13.8336 -58.5266,-32.9877 -22.3466,-76.6166 10.6412,-68.1037 28.7313,-31.9235 29.7953,-18.0901 40.4366,1.0642 38.3083,11.7052 26.6029,19.1542 -14.8976,23.4106 -54.2701,-10.6412 -38.3083,11.7053 -9.5771,56.3983 11.7053,41.5008 17.0259,3.1923 27.6671,-11.7053 42.5648,-11.7054 18.09,18.0901 -5.3205,43.6289 z"
         style="fill:#e4e5b0;fill-opacity:1;fill-rule:evenodd;stroke:none;stroke-width:8px;stroke-linecap:butt;stroke-linejoin:miter;stroke-opacity:1" />
      <path
         sodipodi:nodetypes="scscccccccccccccsscccccccccccccsscscc"
         inkscape:connector-curvature="0"
         id="path9113"
         transform="matrix(8,0,0,-8,0,4000)"
         d="m 212.40625,90.15625 c -1.5625,0 -3.09375,0.53125 -5.53125,1.59375 -4.625,2 -6.875,6.5 -6.875,13.875 0,7.125 2.125,11.625 6.375,13.875 4.5,2.25 6.125,2.25 12.375,-0.25 5.25,-2.125 6.25,-4.125 3.125,-6.75 -1.5,-1.25 -2.625,-1.25 -5.625,0 -5.25,2.125 -7.5,0 -7.625,-7.375 l -0.004,-0.18945 c 0.36537,-0.77285 0.54614,-1.64278 1.11329,-2.30078 0.38433,-0.34524 0.58878,-0.96273 1.17578,-1.06836 0.94566,-0.19365 1.81321,0.38094 2.65625,0.71679 0.67821,0.3485 1.45546,0.35807 2.15625,0.64063 0.36153,0.12582 0.7319,0.26173 1.10546,0.38476 1.03199,1.63725 4.65942,1.26323 6.04688,-0.93359 2.25,-3.5 -0.125,-8.625 -4.75,-10.625 -2.5625,-1.0625 -4.15625,-1.59375 -5.71875,-1.59375 z m 0.52539,3.667969 c 4.31519,-0.05371 8.31836,2.457031 8.31836,6.675781 0,1.75 -0.625,2.125 -2.625,1.625 -0.22054,-0.0509 -0.38263,-0.062 -0.57031,-0.0898 0.0815,-0.01 0.10024,-0.0326 -0.0957,-0.0957 -0.0908,0.005 -0.13383,0.0275 -0.1582,0.0566 -0.16461,-0.0168 -0.33171,-0.0354 -0.46484,-0.0312 -0.0504,-0.01 -0.14423,-0.0159 -0.17188,-0.0254 -1.70145,-0.41332 -3.01759,-1.69708 -4.6875,-2.193356 -1.11739,-0.461925 -2.5122,-0.575994 -3.55859,0.121094 -1.60216,2.115292 -1.07017,0.647402 -1.79297,3.632812 -2.625,8.125 2.25,14.5 9.125,11.875 2,-0.75 4,-1 4.375,-0.375 1,1.625 -2.5,3.875 -7.25,4.625 -3.625,0.5 -5,0.125 -7.625,-2.5 -2.75,-2.75 -3.25,-4.375 -3.25,-10.25 0,-5.75 0.5,-7.5 3.125,-10 2.01562,-2.0625 4.71753,-3.018555 7.30664,-3.050781 z" />
      <path
         inkscape:connector-curvature="0"
         id="path9917"
         d="m 1570.6401,3248.7562 -4.2565,-28.7312 -84.0654,-4.2565 1.0641,-20.2183 65.9754,-45.7572 30.8594,-39.3724 -11.7053,-39.3724 -17.0259,-29.7953 -47.8853,-8.513 -36.1801,8.513 -26.603,9.5771 -18.09,8.513 -10.6412,15.9617 11.7053,10.6412 28.7312,-8.5129 30.8595,-6.3848 28.7312,8.513 9.5771,22.3465 -2.1283,8.5129 -75.5525,41.5007 -18.09,34.0518 2.1283,30.8595 17.0259,28.7312 24.4747,12.7694 18.09,5.3206 39.3725,-3.1923 34.0518,-7.4489 z"
         style="fill:#e4e5b0;fill-opacity:1;fill-rule:evenodd;stroke:none;stroke-width:8px;stroke-linecap:butt;stroke-linejoin:miter;stroke-opacity:1" />
      <path
         id="path9115"
         transform="matrix(8,0,0,-8,0,4000)"
         d="m 187.21094,91.748047 c -2.29248,0.03296 -4.41406,0.314453 -5.58594,0.876953 -1.5,0.75 -3.375,3 -4.125,5 -2,4.75 0.75,9.25 7.5,11.875 5.48196,2.24262 6.11634,3.36895 2.90234,5.48047 -3.07459,1.24348 -6.33106,-0.0685 -8.94726,-1.70313 -1.90605,-0.74121 -5.24243,1.66466 -3.05078,3.44336 0.17073,0.22612 0.35263,0.37046 0.53125,0.47461 1.15782,1.65393 8.06443,4.05469 12.06445,4.05469 6.25,0 10.25,-3.625 10.25,-9.25 0,-3.875 -4.125,-9.5 -7,-9.5 -0.75,0 -2.375,-0.875 -3.75,-2 -2.25,-1.75 -2,-1.875 2.875,-1.375 4.5,0.5 5.375,0.25 6.125,-1.875 0.375,-1.375 0.125,-3.125 -0.5,-3.75 -1.17188,-1.171875 -5.46826,-1.806885 -9.28906,-1.751953 z m 1.05859,0.978515 c 1.16797,-0.01562 2.44922,0.117188 3.85547,0.398438 6.125,1.125 4.625,3.75 -2.25,3.75 -4.625,0 -5.5,0.375 -5.875,2.5 -0.25,2 1,3.25 5.25,5.375 6.75,3.125 8.625,7.625 5.125,11.5 -2.5,2.75 -11.5,3.5 -15.75,1.25 -0.45178,-0.27107 -0.86442,-0.45331 -1.23633,-0.59375 0.019,-0.23711 -0.0698,-0.5519 -0.35156,-0.94141 0.62115,-2.75432 4.04121,0.60268 5.87109,0.11914 1.38533,-0.25986 3.99456,0.93176 4.90039,-0.0527 0.12279,-0.0134 0.17621,-0.0157 0.31641,-0.0312 1.5,-0.25 2.625,-1.5 2.875,-3.125 0.375,-2.125 -0.75,-3.375 -4.625,-5.375 -6.625,-3.25 -8.5,-6.625 -5.875,-10.625 1.78125,-2.71875 4.26562,-4.101562 7.76953,-4.148438 z"
         inkscape:connector-curvature="0" />
      <path
         inkscape:connector-curvature="0"
         id="path9921"
         d="m 1862.2087,3259.3974 -23.4105,6.3847 -17.026,-5.3206 -6.3847,-63.8472 c 0,0 -1.0641,-156.4255 8.513,-157.4897 9.577,-1.064 37.2441,-3.1923 37.2441,-3.1923 l 20.2183,92.5784 24.4747,4.2565 18.0901,-18.0901 7.4488,-30.8594 6.3847,-30.8595 19.1542,-11.7053 24.4747,6.3847 4.2565,122.3738 3.1924,90.4501 -38.3084,1.0641 -11.7052,-52.1418 -3.1924,-28.7312 -22.3465,-4.2565 -24.4747,-1.0642 -14.8977,5.3207 -5.3207,30.8594 3.1924,27.6671 z"
         style="fill:#e4e5b0;fill-opacity:1;fill-rule:evenodd;stroke:none;stroke-width:8px;stroke-linecap:butt;stroke-linejoin:miter;stroke-opacity:1" />
      <path
         id="path9117"
         transform="matrix(8,0,0,-8,0,4000)"
         d="m 229.83984,91.240234 c -1.11621,7.33e-4 -2.15234,0.275391 -2.71484,0.884766 -0.5,0.375 -0.875,7.125 -0.875,15 l 0,14.125 4.375,0 4.375,0 0,-6.125 c 0,-4.02418 0.21043,-5.52581 1.36523,-6.23633 0.93742,0.0523 1.83449,0.28444 2.58204,0.98047 1.31762,1.16343 1.28598,2.88394 1.78125,4.33008 0.23492,0.7983 0.45402,1.68509 0.67968,2.51172 -0.0108,0.15138 -0.0226,0.23417 -0.0332,0.41406 -0.125,2 0.75,3 2.875,3.625 1.75,0.375 3.75,0.375 4.375,-0.125 C 249.5,120.125 250,114.25 250,105.5 l 0,-14.25 -4.375,0 c -4.25,0 -4.375,0.125 -4.375,5 0,2.75 -0.5,5 -1.125,5 -0.625,0 -2,0.375 -3.125,0.75 -1.5,0.625 -2,-0.125 -2,-3 0,-2.125 -0.375,-4.625 -0.75,-5.75 -0.46875,-1.25 -2.5498,-2.010986 -4.41016,-2.009766 z M 230.75,92.5 c 1.25,0 1.75,1.5 1.75,5.5 0,5.375 0.125,5.5 4.75,6.125 6.125,0.75 6.5,0.375 6.5,-5.5 0,-3.5 0.5,-4.875 1.875,-4.875 1.5,0 1.875,2.25 1.875,12.5 0,11.5 -0.25,12.5 -2.375,12.5 -0.66897,0 -1.33559,-0.23992 -1.875,-0.62695 -0.93127,-1.09131 -1.28734,-2.74764 -1.01758,-4.10743 0.18565,-2.01592 -0.88296,-3.93264 -2.31836,-5.25 -0.51296,-0.45502 -1.1237,-0.52179 -1.77148,-0.45507 1.59015,-0.33633 1.1749,-0.56849 -1.51758,-0.68555 -4.125,-0.125 -4.125,0 -4.125,5.5 0,3.875 -0.5,5.625 -1.75,5.625 -1.125,0 -1.875,-3.125 -2.5,-12 -0.875,-12.375 -0.5,-14.25 2.5,-14.25 z"
         inkscape:connector-curvature="0" />
      <path
         inkscape:connector-curvature="0"
         id="path9930"
         d="m 2512.3856,3257.2691 -11.7053,-53.2059 -1.0641,-89.3861 1.0641,-51.0777 4.2565,-10.6412 c 0,0 13.8335,-12.7694 21.2824,-12.7694 7.4488,0 77.6807,-1.0642 81.9372,1.0641 4.2564,2.1282 20.2182,17.0259 20.2182,17.0259 l 0,17.0259 -4.2564,6.3847 -30.8595,4.2565 -29.7953,3.1923 -9.5772,6.3848 1.0642,36.18 -1.0642,79.809 -8.5128,43.6289 z"
         style="fill:#e4e5b0;fill-opacity:1;fill-rule:evenodd;stroke:none;stroke-width:8px;stroke-linecap:butt;stroke-linejoin:miter;stroke-opacity:1" />
      <path
         inkscape:connector-curvature="0"
         id="path9119"
         d="m 2516.6082,3271.9673 c -23,0 -23,-2 -23,-114 0,-128 -1,-126 75,-126 74,0 103,52 32,58 l -37,3 0,78 c 0,82 -9,101 -47,101 z m 13.8281,-20.9531 c 11.0665,1.1183 19.7313,-7.4447 10.8437,-26 3.0242,-19.6372 11.9567,-43.973 11.5626,-64.0469 -0.3943,-20.0739 -8.1601,-47.6838 -3.1095,-66.0156 12.1547,-30.4781 82.5295,1.4263 65.6407,-35.6875 -26.897,-17.5674 -62.7306,-10.5957 -93.0938,-7.9844 -7.7414,2.6843 -14.251,8.4412 -17.8437,15.8125 -1.6172,50.6115 9.8171,101.8922 0.6875,151.875 0.7749,20.1284 14.246,30.9287 25.3125,32.0469 z" />
      <path
         sodipodi:nodetypes="csccc"
         style="fill:#d8eff1;fill-opacity:1;fill-rule:evenodd;stroke:none;stroke-width:8px;stroke-linecap:butt;stroke-linejoin:miter;stroke-opacity:1"
         d="m 2718.1888,2426.3087 c 0,0 -8.4246,-297.6722 -25.274,-300.4804 -16.8494,-2.8082 -207.8089,-2.8082 -207.8089,-2.8082 l -11.2329,294.8639 z"
         id="path9893"
         inkscape:connector-curvature="0" />
      <path
         id="path9121"
         transform="matrix(8,0,0,-8,0,4000)"
         d="m 304.94531,191.10156 0.45899,12.26563 0,0.008 c -0.16206,2.11691 -0.37329,5.1284 -0.6543,9.125 -0.625,9.25 -0.875,19.125 -0.375,21.875 l 0.625,5 18.5,0 c 10.75,0 18.75,-0.5 19.25,-1.25 0.5,-0.75 1,-11.5 1,-24.125 l 0,-22.75 -10.25,0.25 c -2.08051,0.0452 -4.41245,0.13351 -6.73242,0.23828 -10.07201,-0.22348 -21.82227,-0.63672 -21.82227,-0.63672 z M 198.75,191.25 188.5,191.5 c -2.33502,0.0508 -5.03619,0.1525 -7.70312,0.27734 -10.81206,0.0275 -23.00391,-0.0684 -23.00391,-0.0684 l 1.20117,32.16797 c -0.023,1.78002 -0.0244,3.45159 0.006,4.87305 l 0.375,10.5 18.875,0.125 19,0 L 198,232 c 0.375,-4 0.75,-14.875 0.75,-24 l 0,-16.75 z m 96.25,0 -10.25,0.25 c -3.30512,0.0719 -7.20613,0.23395 -10.69336,0.44727 -8.91429,-0.22905 -17.75586,-0.54102 -17.75586,-0.54102 l 0.42383,11.38281 c -0.10452,2.68654 -0.17503,7.24358 -0.22461,14.08594 l -0.25,22.5 19,-0.375 19.125,-0.25 L 294.75,215 295,191.25 Z m -86.73633,0.15625 0.10742,2.89453 -0.71484,1.96875 0,15.98047 c -0.0984,2.61858 -0.15625,5.73475 -0.15625,9.375 l 0,17.875 19.125,-0.375 19,-0.375 0.875,-20.375 c 0.5,-11.125 0.625,-21.75 0.25,-23.75 C 246,191.25 246,191.25 236.5,191.5 c -3.03052,0.0722 -6.84481,0.2345 -10.36328,0.44922 -8.9544,-0.2293 -17.87305,-0.54297 -17.87305,-0.54297 z m 105.48242,1.74219 c 1.03724,0.17898 4.53933,0.28422 11.00391,0.35156 9.125,0.125 15.25,0.75 15.25,1.5 0,0.75 -6,1.25 -15.625,1.25 l -15.625,0 -0.125,15.25 c -0.125,11.625 -0.375,14.125 -1.25,10.375 -0.5,-2.75 -1.125,-9.75 -1.25,-15.625 -0.0997,-3.9898 -0.1601,-6.31421 -0.26758,-6.69141 l 0,-6.02539 7.88867,-0.38476 z m -45.97461,0.17383 c 1.93563,0.0782 4.78778,0.13624 8.85352,0.17773 l 15.875,0.25 0,21.875 0,21.875 -16.875,0 -16.875,0 -0.125,-12.875 c -0.125,-7 -0.625,-16.75 -1.125,-21.5 -0.10778,-1.16399 -0.20035,-1.91219 -0.28711,-2.46094 l 0,-6.82617 10.55859,-0.51562 z m -48.43945,0.0195 c 1.93397,0.0679 4.6751,0.12028 8.54297,0.1582 l 15.875,0.25 0,21.875 0,21.875 -16.875,0 -16.875,0 0,-16.875 c 0,-4.8933 -0.12327,-8.75918 -0.32031,-11.63477 0.4283,-6.7923 0.93977,-14.60562 0.98047,-15.22461 l 8.67187,-0.42382 z m -45.10742,0.0801 c 1.5034,0.0279 2.83173,0.0578 4.90039,0.0781 9.625,0.125 15.875,0.75 15.875,1.5 0,0.75 -6,1.25 -15.625,1.25 l -15.625,0 0,7.125 c 0,4 -0.375,12.75 -0.875,19.375 l -0.75,12.25 15.5,-0.375 15.5,-0.25 0.625,-5.625 0.625,-5.625 1,4.25 c 0.5,2.25 0.875,5.5 0.875,7.125 l 0,3 -17.5,0 -17.5,0 -0.125,-21 c -0.16027,-12.98152 -0.22203,-17.66958 -0.53906,-16.55078 l -0.0566,-5.80664 13.69531,-0.7207 z M 227.5,196.25 c -8.25,0 -15,0.125 -15,0.25 -0.125,0.25 -0.375,9 -0.75,19.375 l -0.625,19.125 15.375,-0.375 15.375,-0.25 0.375,-11.625 c 0.375,-11.25 0.25,-11.5 -2.5,-11.625 l -2.875,0 2.875,-1.125 c 2.375,-1 2.75,-2.125 2.75,-7.5 l 0,-6.25 -15,0 z m 32.5,0 0,19.375 0,19.375 7.875,-0.125 7.75,-0.25 -6.375,-1.125 -6.375,-1.25 -0.875,-15.5 c -0.5,-8.625 -0.5,-16.125 -0.125,-16.75 0.375,-0.75 3.25,-1.25 6.375,-1.25 l 5.5,0 0,17.125 c 0,11.625 0.375,16.625 1.25,15.375 1,-1.5 1.25,-1.375 1.25,0.875 0,2.625 0.625,2.875 6.75,2.875 6.5,0 6.75,-0.125 7.5,-3.875 0.375,-2.125 0.75,-7.5 0.75,-11.875 0,-7.375 -0.25,-8 -2.75,-8.125 -2,0 -2.25,-0.25 -1,-0.75 2.875,-1.125 3.75,-3 3.75,-8.875 l 0,-5.25 -15.625,0 -15.625,0 z m -95,2.5 5.375,0 5.5,0 0.75,17.125 c 0.5,9.375 0.625,17.25 0.375,17.5 -0.125,0.25 -3,0 -6.125,-0.375 l -5.875,-0.875 0,-16.625 0,-16.75 z m 48.75,0 5.5,0 5.5,0 0.5,17.125 c 0.25,9.5 0.375,17.375 0.25,17.625 -0.125,0.25 -2.875,0 -6,-0.375 l -5.75,-0.875 0,-16.75 0,-16.75 z m 96.25,0 5.5,0 5.5,0 0.875,17 c 0.5,9.25 0.625,17.125 0.25,17.5 -0.25,0.375 -2.75,0.25 -5.5,-0.25 l -5,-0.75 L 310.75,222 C 310.375,216.5 310,208.875 310,205.25 l 0,-6.5 z"
         inkscape:connector-curvature="0" />
      <path
         inkscape:connector-curvature="0"
         id="path9901"
         d="m 2692.9147,1929.2524 c 0,0 14.2575,-285.6973 -2.8082,-286.4393 -64.5893,-2.8082 -219.0418,-2.8081 -219.0418,-2.8081 l 14.0412,283.6309 z"
         style="fill:#d8eff1;fill-opacity:1;fill-rule:evenodd;stroke:none;stroke-width:8px;stroke-linecap:butt;stroke-linejoin:miter;stroke-opacity:1"
         sodipodi:nodetypes="csccc" />
      <path
         sodipodi:nodetypes="csccc"
         style="fill:#d8eff1;fill-opacity:1;fill-rule:evenodd;stroke:none;stroke-width:8px;stroke-linecap:butt;stroke-linejoin:miter;stroke-opacity:1"
         d="m 2305.3793,1926.4442 c 0,0 0.2164,-288.5055 -16.8493,-289.2475 -64.5893,-2.8082 -205.0007,10e-5 -205.0007,10e-5 l 14.0412,283.6309 z"
         id="path9899"
         inkscape:connector-curvature="0" />
      <path
         sodipodi:nodetypes="csccc"
         style="fill:#d8eff1;fill-opacity:1;fill-rule:evenodd;stroke:none;stroke-width:8px;stroke-linecap:butt;stroke-linejoin:miter;stroke-opacity:1"
         d="m 1561.1991,1940.4854 c 0,0 -5.6164,-300.4804 -22.4658,-303.2886 -16.8494,-2.8082 -210.6171,0 -210.6171,0 l -11.2329,294.8639 z"
         id="path9895"
         inkscape:connector-curvature="0" />
      <path
         id="path9141"
         transform="matrix(8,0,0,-8,0,4000)"
         d="m 160.22656,251.30078 -0.4082,16.4707 c -0.43378,5.14108 -0.83368,13.21137 -0.94336,19.35352 L 158.75,300 l 19.25,0 19.125,0 0.875,-7.625 c 0.375,-4.25 0.75,-15 0.75,-23.75 l 0,-16.125 -1.20703,0 0.38281,-0.28711 -37.69922,-0.91211 z m 145.32813,0.60742 -0.40625,16.42188 c -0.12213,1.78081 -0.23288,3.3538 -0.39844,5.91992 -0.625,9.5 -0.875,19.25 -0.375,21.625 l 0.75,4.25 19,-0.375 19,-0.375 0.375,-23.5 0.25,-23.375 -13.125,0 c -1.8292,0 -3.47914,0.0332 -4.99219,0.084 l -20.07812,-0.6758 z M 232.875,252.5 c -5.87339,0 -9.72822,0.25066 -11.36523,0.65625 l -13.85352,-0.33594 -0.60937,24.62696 0.46484,3.02343 c -0.004,0.6748 -0.0117,1.31741 -0.0117,2.0293 l 0,17.5 19.25,0 19.125,0 0.625,-21.375 C 246.875,267 247,256.25 246.625,254.875 246,252.75 244.75,252.5 232.875,252.5 Z m 48.875,0 c -5.00167,0 -8.58415,0.18096 -10.58203,0.48438 l -13.95508,-0.46876 -0.21094,8.53711 c -0.27615,0.0151 -0.41742,5.11698 -0.50195,16.69727 l -0.25,22.25 19.375,0 19.375,0 0,-23.75 0,-23.75 -13.25,0 z m -120.61133,1.53711 12.77539,0.35156 c 1.8409,0.37924 5.3608,0.61133 9.83594,0.61133 16.75,0 13.625,1.75 -4.125,2.25 -8.375,0.25 -15.375,0.625 -15.375,0.625 -0.125,0.125 -0.625,8.875 -1,19.25 l -0.875,19.125 7,0 c 4.375,0 6.75,-0.5 6.25,-1.25 -0.375,-0.75 -3,-1.25 -5.75,-1.25 l -4.875,0 0,-17.25 0,-17.125 5.375,0.375 5.5,0.5 0.75,16.75 c 0.375,9.25 1.125,17.375 1.5,18 1,1.625 13.125,1.625 13.125,0 0,-0.75 -1.875,-1.25 -4.25,-1.25 -3.75,0 -4.25,-0.5 -5,-3.875 -0.375,-2.125 -0.75,-6.375 -0.75,-9.375 l 0,-5.5 5,0 5,0 0.125,6.5 c 0.125,3.625 0.625,8.25 1.125,10.375 0.875,3.375 1,3.125 1.25,-2.5 0.25,-5.625 0.375,-5.875 1.25,-2.5 0.5,2 1,5.625 1.125,7.75 l 0.125,4.125 -17.5,0 -17.5,0 -0.25,-21 c -0.0146,-1.9415 -0.0382,-3.0575 -0.0566,-4.62109 l 0.19531,-19.0918 z m 157.9375,0.38672 C 320.9619,254.78255 324.41099,255 328.75,255 c 6.25,0 11.25,0.375 11.25,1 0,0.5 -1.5,0.875 -3.375,1 -2,0 -9,0.125 -15.625,0.25 l -12.25,0.25 -0.125,15.25 c -0.125,12 -0.375,14.125 -1.25,9.75 -0.37794,-2.36211 -0.82531,-6.93554 -1.07617,-11.4043 l 0.16797,-16.45117 12.60937,-0.2207 z m -41.60937,0.48828 c 1.23751,0.053 2.54453,0.0879 3.9082,0.0879 l 11.125,0 0,21.875 0,21.875 -16.875,0 -16.875,0 -0.125,-12.875 c -0.0843,-4.72189 -0.34381,-10.60738 -0.6543,-15.45312 l 0.1543,-15.16993 19.3418,-0.33984 z M 240.32812,255 l 3.42188,0 0,21.875 0,21.875 -16.875,0 -16.875,0 0,-16.875 C 210,271.5 209.5,265 208.75,265 c -0.0991,0 -0.19345,0.1318 -0.2832,0.35742 l 0.0996,-9.80078 L 240.32812,255 Z m 0.20508,1.45898 c -0.26318,-0.0163 -0.56445,0.01 -0.9082,0.041 -1.5,0.125 -8.375,0.5 -15.25,0.625 l -12.5,0.5 -0.375,19.25 -0.375,19.375 6.375,0 c 3.375,0 6.25,-0.625 6.25,-1.25 0,-0.75 -2.25,-1.25 -5,-1.25 l -5,0 0,-16.875 0,-16.875 5.625,0 5.625,0 0.125,14.625 c 0.125,20.5 0.375,20.875 8.375,21.375 4,0.25 6.5,-0.125 6.5,-0.875 0,-0.75 -2.25,-1.375 -5,-1.375 l -5,0 0,-9.375 0,-9.375 5,0 5,0 0,7.75 c 0,4.375 0.625,8.75 1.25,9.75 0.75,1.25 1.125,-4.5 1.125,-17.25 0,-16.51562 4.9e-4,-18.67651 -1.8418,-18.79102 z m 48.58789,0.006 c -0.25488,-0.0186 -0.54297,0.004 -0.87109,0.0352 -1.375,0.125 -8.375,0.5 -15.375,0.625 l -12.875,0.5 0,19.25 0,19.375 6.25,0 c 3.5,0 6.25,-0.625 6.25,-1.25 0,-0.75 -2.125,-1.25 -4.875,-1.25 l -4.75,0 L 262,278.125 c -0.5,-8.625 -0.5,-16.25 -0.125,-16.875 0.375,-0.75 3.25,-1.25 6.375,-1.25 l 5.5,0 0.125,17.75 c 0,11.125 0.5,16.875 1.125,15.375 1,-2.375 1.125,-2.375 1.125,0.25 0.125,2.625 0.75,2.875 6.375,2.875 5.625,0 6.5,-0.375 7.5,-3.125 0.625,-1.75 1.125,-10.75 1.125,-20 -0.10938,-14.4375 -0.21973,-16.53027 -2.00391,-16.66016 z M 310,260 l 5.5,0 5.5,0 1,17.75 c 0.75,12.75 1.25,16.375 1.875,12.875 l 0.75,-5 0.25,5.25 0.125,5.375 5.625,0 c 3.125,0 5.625,-0.625 5.625,-1.25 0,-0.75 -1.875,-1.25 -4.25,-1.25 -4.125,0 -4.125,-0.125 -5,-6.625 -1.375,-12 -1.375,-12.125 4.125,-12.125 l 4.875,0 0.875,10.125 c 0.5,5.5 1.125,9.75 1.5,9.5 0.25,-0.375 1,-5.25 1.5,-11 l 1,-10.5 0.25,12.75 0.125,12.875 -17.5,0 -17.625,0 L 307,294 c 1.125,-6 1.75,-6.625 1.75,-1.75 0,4 0,4 6.375,4 3.875,0 6,-0.5 5.5,-1.25 -0.375,-0.75 -2.625,-1.25 -4.875,-1.25 l -4.125,0 -0.75,-10.375 C 310.375,277.75 310,270.125 310,266.5 l 0,-6.5 z"
         inkscape:connector-curvature="0" />
      <path
         sodipodi:nodetypes="csccc"
         style="fill:#d8eff1;fill-opacity:1;fill-rule:evenodd;stroke:none;stroke-width:8px;stroke-linecap:butt;stroke-linejoin:miter;stroke-opacity:1"
         d="m 393.15187,1752.3341 c 0,0 -25.27405,-322.9462 -8.42468,-325.7544 16.84937,-2.8082 252.74048,0 252.74048,0 l 0,317.3297 z"
         id="path9879"
         inkscape:connector-curvature="0" />
      <path
         inkscape:connector-curvature="0"
         id="path9881"
         d="m 791.92019,1749.5259 c 0,0 -25.27405,-322.9462 -8.42468,-325.7544 16.84937,-2.8082 252.74049,0 252.74049,0 l 0,317.3297 z"
         style="fill:#d8eff1;fill-opacity:1;fill-rule:evenodd;stroke:none;stroke-width:8px;stroke-linecap:butt;stroke-linejoin:miter;stroke-opacity:1"
         sodipodi:nodetypes="csccc" />
      <path
         inkscape:connector-curvature="0"
         id="path9883"
         d="m 645.71684,1269.319 c 0,0 25.27405,-322.94625 8.42468,-325.75445 -16.84937,-2.8082 -252.74048,0 -252.74048,0 l 0,317.32975 z"
         style="fill:#d8eff1;fill-opacity:1;fill-rule:evenodd;stroke:none;stroke-width:8px;stroke-linecap:butt;stroke-linejoin:miter;stroke-opacity:1"
         sodipodi:nodetypes="csccc" />
      <path
         sodipodi:nodetypes="csccc"
         style="fill:#d8eff1;fill-opacity:1;fill-rule:evenodd;stroke:none;stroke-width:8px;stroke-linecap:butt;stroke-linejoin:miter;stroke-opacity:1"
         d="m 1050.1016,1269.319 c 0,0 -8.4246,-297.6722 -25.274,-300.4804 -16.8494,-2.8082 -207.80887,-2.80823 -207.80887,-2.80823 l -11.23291,294.86393 z"
         id="path9885"
         inkscape:connector-curvature="0" />
      <g
         id="g9834">
        <path
           d="M 83.75,213.75 75.375,214 c -4.75,0.125 -13.375,0.5 -19.25,0.625 l -10.75,0.5 -0.75,12.125 c -0.5,6.625 -0.875,17.375 -0.875,23.625 l 0,11.625 19.25,0 c 16.375,0 19.375,-0.25 20,-2 0.375,-1.125 0.75,-12 0.75,-24.375 l 0,-22.375 z m -34.125,7.5 5.875,0 5.75,0 0,10.875 c 0,6.125 0.375,14 0.75,17.5 l 0.875,6.625 -4.25,0 c -2.375,0 -4.875,-0.5 -5.75,-1 -1,-0.625 -1.875,-6.875 -2.375,-17.5 l -0.875,-16.5 z m 28.207031,0.25391 0.609375,34.05273 -9.730468,0 -1.214844,-4.86523 -2.128906,-28.88282 12.464843,-0.30468 z"
           id="path9133"
           transform="matrix(8,0,0,-8,0,4000)"
           inkscape:connector-curvature="0" />
        <path
           d="m 95,213.5 0.625,24.25 0.625,24.125 19.625,0.375 19.5,0.375 -0.875,-23.5 c -0.5,-12.875 -1,-23.5 -1.125,-23.625 -0.125,-0.125 -8.875,-0.625 -19.375,-1 l -19,-1 z m 37.5,2.75 -0.125,10.25 c 0,5.75 -0.375,9.625 -0.75,8.75 -0.25,-0.75 -1.375,-1.5 -2.375,-1.5 -1,0 -1.75,-0.625 -1.75,-1.25 0,-0.75 -2.25,-1.25 -5,-1.25 l -5,0 0,-5 c 0,-5 0,-5 4.875,-5 4.75,0 4.875,0 5.875,5.875 l 0.875,6 1,-5 c 2,-10 2.875,-9.375 -14.25,-9.375 l -15.5,0 -0.875,18.875 c -0.375,10.25 -0.625,19.125 -0.25,19.625 0.25,0.5 3.875,0.625 7.875,0.25 l 7.25,-0.625 0.75,-7.5 0.75,-7.5 0.125,8.5 0.25,8.375 5.375,-0.75 c 8,-1.125 8.25,-1.25 8.75,-7 0.375,-4.75 0.5,-4.5 0.625,1.75 l 0.25,7.25 -16.875,0 -16.875,0 0.25,-21 0.375,-20.875 6.875,-0.75 c 3.75,-0.375 11.5,-0.75 17.25,-0.875 l 10.25,-0.25 z m -31.5,5 5.75,0 5.75,0 0,9 c 0,5 0.375,13 0.875,17.625 l 0.75,8.5 L 108,256 101.875,255.625 101.5,238.375 101,221.25 Z m 17.57422,10.89648 3.64844,0.30274 3.03906,1.2168 1.51953,20.37109 -8.51172,0.91211 0.30469,-22.80274 z"
           transform="matrix(8,0,0,-8,0,4000)"
           id="path9135"
           inkscape:connector-curvature="0" />
        <path
           d="m 65.671875,336.125 -19.763672,0.30469 -0.0332,0.44531 -0.01172,0.13867 L 44.875,348.75 c -0.625,6.5 -1,17.125 -0.875,23.625 l 0.375,11.75 18.75,-0.25 C 73.375,383.75 82.25,383.25 82.75,383 c 0.5,-0.375 1,-11 1,-23.75 l 0,-23 -17.658203,0.12109 -0.419922,-0.24609 z m -19.154297,1.52148 6.875,0.1836 c 3.412143,0.45336 9.712894,0.93637 15.357422,1.04492 11.75,0.25 11.875,0.25 4.375,1.25 -4.125,0.5 -8.5,0.625 -9.75,0.375 -1.25,-0.375 -5,-0.375 -8.5,0.125 l -6.125,0.875 0,10.375 c 0,5.75 -0.5,10.875 -1.25,11.25 -0.661036,0.44069 -1.111795,-3.29334 -1.298828,-10.04492 l 0.316406,-15.4336 z M 50,343.75 l 5.625,0 5.625,0 0,11.125 c 0,6 0.375,13.625 0.75,16.875 l 0.875,5.75 -5.625,0 -5.625,0 -0.75,-10.375 C 50.375,361.5 50,353.875 50,350.25 l 0,-6.5 z"
           transform="matrix(8,0,0,-8,0,4000)"
           id="path9161"
           inkscape:connector-curvature="0" />
        <path
           d="m 135,336.25 -18.375,0.125 c -7.84162,0.074 -12.32326,0.23866 -13.98633,0.51367 l -5.511717,0.14453 -0.002,-0.1582 -0.01563,0.1582 -0.123047,0.004 -0.912109,5.47266 0.197265,2.89843 L 96,348.125 C 95.5,354.25 95.125,365 95.25,371.75 l 0.375,12.375 18.75,-0.25 c 12.75,-0.25 19,-0.75 19.625,-1.75 0.5,-0.875 1,-11.5 1,-23.75 l 0,-22.125 z m -37.404297,1.69922 8.003907,0 c 3.55353,0.37103 9.17881,0.67578 14.15039,0.67578 13.875,0.125 15.5,1.875 1.75,2.25 -5.25,0 -12.25,0.25 -15.5,0.25 l -6,0.125 0,10.875 C 100,358.25 99.375,364 98.75,365 c -0.875,1.25 -1.25,-2.875 -1.375,-13.125 l -0.08398,-4.98242 0.304687,-8.94336 z m 4.906247,4.89844 c 0.18213,-7.4e-4 0.38867,0.0586 0.62305,0.15234 1.125,0.375 3.75,0.75 5.75,0.75 3.625,0 3.625,0 3.625,7.875 0,4.375 0.375,12.5 1,17.875 l 0.875,9.875 0.75,-8.125 0.75,-8.125 0.125,8.375 0.25,8.5 5.625,0 c 3.125,0 5.625,-0.625 5.625,-1.25 0,-0.75 -1.875,-1.25 -4.25,-1.25 -3.875,0 -4.25,-0.375 -5,-4.75 -0.375,-2.5 -0.75,-6.75 -0.75,-9.375 0,-4.625 0,-4.625 5,-4.625 l 5,0 0.125,5.25 c 0,3 0.5,7.625 1,10.375 l 1.125,5 0.125,-5.5 c 0.125,-7.125 0.875,-6.25 1.75,2.125 l 0.75,6.625 -17.125,-0.375 -17.125,-0.375 -0.25,-3.75 c -0.125,-2.5 0,-2.875 0.5,-1 0.5,2.5 1.375,2.875 6.625,2.875 3.375,0 6.5,-0.625 6.875,-1.25 0.5,-0.75 -1.375,-1.25 -4.625,-1.25 l -5.375,0 -0.375,-17.625 c -0.32812,-14.10938 -0.27295,-17.02222 1.00195,-17.02734 z m 24.88867,1.48632 -0.30468,13.07422 -10.03321,-0.60742 0.60938,-11.85742 9.72851,-0.60938 z"
           transform="matrix(8,0,0,-8,0,4000)"
           id="path9163"
           inkscape:connector-curvature="0" />
        <path
           id="path9719"
           d="m 670,1788.9518 -67,-2 c -38,-1 -107,-4 -154,-5 l -86,-4 -6,-97 c -4,-53 -7,-139 -7,-189 l 0,-93 154,0 c 131,0 155,2 160,16 3,9 6,96 6,195 z m -273,-60 47,0 46,0 0,-87 c 0,-49 3,-112 6,-140 l 7,-53 -34,0 c -19,0 -58.45818,-0.8645 -65.45818,3.1355 -8,5 -7.70318,57.4322 0.45818,144.8645 z m 225.65625,-2.0312 4.875,-272.4219 -94.86966,-7.2968 -4.8542,51.0832 -4.86989,226.198 z"
           inkscape:connector-curvature="0"
           sodipodi:nodetypes="cccccscscsccccsccsccccccccc" />
        <path
           sodipodi:nodetypes="cccccscscsccccsccsccccccccc"
           inkscape:connector-curvature="0"
           d="m 748.89271,1793.8163 67,-2 c 37.99999,-1 106.99999,-4 153.99999,-5 l 86,-4 6,-97 c 4,-53 7,-139 7,-189 l 0,-93 -154,0 c -130.99999,0 -154.99999,2 -159.99999,16 -3,9 -6,96 -6,195 z m 272.99999,-60 -47,0 -46,0 0,-87 c 0,-49 -3,-112 -6,-140 l -7,-53 34,0 c 19,0 58.4582,-0.8645 65.4582,3.1355 8,5 7.7032,57.4322 -0.4582,144.8645 z m -225.65629,-2.0312 -4.875,-272.4219 94.8697,-7.2968 4.8542,51.0832 4.86989,226.198 z"
           id="path9721" />
      </g>
      <path
         id="path9781"
         transform="matrix(8,0,0,-8,0,4000)"
         d="m 266.75391,91.140625 c -1.5625,0 -3.09375,0.53125 -5.53125,1.59375 -4.625,2 -6.875,6.5 -6.875,13.875005 0,7.125 2.125,11.625 6.375,13.875 4.5,2.25 6.125,2.25 12.375,-0.25 3.9318,-1.59145 5.47842,-3.11265 4.69531,-4.87891 l 0.83203,-3.66016 c 0,0 1.50616,-3.19453 1.72266,-4.91797 0.23588,-1.87772 0.0615,-3.84657 -0.49219,-5.65625 -0.49385,-1.614059 -1.31469,-3.186893 -2.45899,-4.427731 -1.04696,-1.135299 -3.16624,-2.412614 -4.56445,-3.199218 -0.0791,-0.228833 -0.19125,-0.475784 -0.35937,-0.759766 -2.5625,-1.0625 -4.15625,-1.59375 -5.71875,-1.59375 z m 4.0664,4.253906 c 1.49073,0.813301 4.64996,2.692907 5.5918,4.496094 1.59574,3.055115 0.49219,10.328125 0.49219,10.328125 l -0.44922,3.47656 c -0.0787,-0.0703 -0.14767,-0.13974 -0.23242,-0.21093 0,0 0.0998,0.17702 0.20507,0.42773 l -0.2539,1.96484 c -0.26446,0.12382 -0.64966,0.17538 -1.20117,0.10743 1,1.625 -2.5,3.875 -7.25,4.625 -3.625,0.5 -5,0.125 -7.625,-2.5 -2.75,-2.75 -3.25,-4.375 -3.25,-10.25 0,-5.75 0.5,-7.5 3.125,-10.000005 0.82286,-3.373732 7.38398,-2.131418 10.84765,-2.464844 z"
         inkscape:connector-curvature="0" />
      <path
         inkscape:connector-curvature="0"
         d="m 2134.6518,3219.724 c -8.6137,0 -17.0552,-2.834 -30.4926,-8.5021 -25.4967,-10.6694 -37.9004,-34.6754 -37.9004,-74.0186 0,-38.0095 11.7146,-62.0155 35.144,-74.0186 24.8075,-12.003 33.7658,-12.003 68.2207,1.3337 21.6752,8.4899 30.2014,16.605 25.8843,26.0274 l 4.5868,19.5257 c 0,0 8.3031,17.0418 9.4966,26.2358 1.3004,10.017 0.339,20.5202 -2.7133,30.1742 -2.7225,8.6105 -7.2476,17.001 -13.5559,23.6205 -5.7717,6.0564 -17.4548,12.8705 -25.1628,17.0668 -0.4363,1.2207 -1.0544,2.5381 -1.9812,4.0531 -14.1265,5.6681 -22.9125,8.5021 -31.5262,8.5021 z m 22.4172,-22.6932 c 8.218,-4.3387 25.6342,-14.3658 30.8264,-23.9852 8.7969,-16.298 2.7133,-55.0971 2.7133,-55.0971 l -2.4764,-18.5463 c -0.4338,0.375 -0.8141,0.7455 -1.2813,1.1252 0,0 0.55,-0.9443 1.1305,-2.2818 l -1.3997,-10.4817 c -1.4579,-0.6606 -3.5815,-0.9356 -6.6218,-0.5731 5.5128,-8.6689 -13.782,-20.6719 -39.9677,-24.6729 -19.9839,-2.6673 -27.5639,-0.6668 -42.035,13.3367 -15.1602,14.6703 -17.9166,23.3392 -17.9166,54.6804 0,30.6743 2.7564,40.01 17.2275,53.3467 4.5363,17.9977 40.7063,11.3704 59.8008,13.1491 z"
         id="path9786" />
      <path
         sodipodi:nodetypes="scsccccsssccscscccccccsscc"
         inkscape:connector-curvature="0"
         d="m 2372.0801,3272.8423 c -12.5,0 -24.75,-4.25 -44.25,-12.75 -37,-16 -58.9347,-20.5225 -58.9347,-79.5225 0,-57 20.9347,-124.4775 54.9347,-142.4775 36,-18 49,-18 99,2 31.4544,12.7316 43.8274,24.9012 37.5625,39.0312 l 6.6562,29.2813 c 0,0 12.0493,25.5563 13.7813,39.3438 1.8871,15.0217 0.492,30.7725 -3.9375,45.25 -3.9508,12.9125 -10.5175,25.4951 -19.6719,35.4218 -8.3757,9.0824 -25.3299,19.3009 -36.5156,25.5938 -0.6331,1.8306 -17.2688,17.5776 -18.6138,19.8495 -20.5,8.5 -17.5112,-1.0214 -30.0112,-1.0214 z m 32.5312,-34.0312 c 11.9259,-6.5065 37.1997,-21.5433 44.7344,-35.9688 12.7659,-24.4409 3.9375,-82.625 3.9375,-82.625 l -3.5937,-27.8125 c -0.6295,0.5623 -1.1814,1.1179 -1.8594,1.6875 0,0 0.7982,-1.4162 1.6406,-3.4219 l -2.0312,-15.7187 c -2.1157,-0.9906 -13.0667,-19.1091 -17.4788,-18.5655 8,-13 -12.1306,-13.2939 -50.1306,-19.2939 -29,-4 -40,-1 -61,20 -22,22 -26,35 -26,82 0,46 15.8041,73.7714 36.8041,93.7714 6.5829,26.9899 47.2678,3.2799 74.9771,5.9474 z"
         id="path9788" />
      <path
         sodipodi:nodetypes="scsccccscsccscsccccccsscc"
         id="path9790"
         d="m 2372.7006,3219.724 c -8.6137,0 -17.0552,-2.834 -30.4926,-8.5021 -25.4967,-10.6694 -37.9004,-34.6754 -37.9004,-74.0186 0,-38.0095 11.7146,-62.0155 35.144,-74.0186 24.8075,-12.003 33.7658,-12.003 68.2207,1.3337 21.6752,8.4899 30.2014,16.605 25.8843,26.0274 l 4.5868,19.5257 c 0,0 8.3031,17.0418 9.4966,26.2358 1.3004,10.017 0.339,20.5202 -2.7133,30.1742 -2.7225,8.6105 -7.2476,17.001 -13.5559,23.6205 -5.7717,6.0564 -17.4548,12.8705 -25.1628,17.0668 -0.4363,1.2207 -20.7279,16.3095 -21.6547,17.8245 -14.1265,5.6681 -3.239,-5.2693 -11.8527,-5.2693 z m 0.7764,-14.8238 c 8.218,-4.3387 47.275,-22.2352 52.4672,-31.8546 8.7969,-16.298 2.7133,-55.0971 2.7133,-55.0971 l -2.4764,-18.5463 c -0.4338,0.375 -0.8141,0.7455 -1.2813,1.1252 0,0 0.55,-0.9443 1.1305,-2.2818 l -1.3997,-10.4817 c -20.7383,-13.096 -26.3891,-22.0742 -46.5895,-25.246 -19.9839,-2.6673 -27.5639,-0.6668 -42.035,13.3367 -15.1602,14.6703 -17.9166,23.3392 -17.9166,54.6804 0,30.6743 2.7564,40.01 17.2275,53.3467 4.5363,17.9977 19.0655,19.2398 38.16,21.0185 z"
         inkscape:connector-curvature="0" />
      <path
         inkscape:connector-curvature="0"
         id="path9913"
         d="m 3218.0533,1252.4696 c 0,0 3.0246,-294.12202 -14.0411,-294.86402 -64.5893,-2.8082 -207.8089,5.6166 -207.8089,5.6166 l -8.4246,283.63092 z"
         style="fill:#d8eff1;fill-opacity:1;fill-rule:evenodd;stroke:none;stroke-width:8px;stroke-linecap:butt;stroke-linejoin:miter;stroke-opacity:1"
         sodipodi:nodetypes="csccc" />
      <path
         inkscape:connector-curvature="0"
         id="path9907"
         d="m 3619.6299,1244.045 c 0,0 16.8494,-300.48042 0,-303.28862 -16.8494,-2.8082 -252.7405,-2.8082 -252.7405,-2.8082 l 5.6165,297.67212 z"
         style="fill:#d8eff1;fill-opacity:1;fill-rule:evenodd;stroke:none;stroke-width:8px;stroke-linecap:butt;stroke-linejoin:miter;stroke-opacity:1"
         sodipodi:nodetypes="csccc" />
      <path
         sodipodi:nodetypes="csccc"
         style="fill:#d8eff1;fill-opacity:1;fill-rule:evenodd;stroke:none;stroke-width:8px;stroke-linecap:butt;stroke-linejoin:miter;stroke-opacity:1"
         d="m 3628.0546,1724.2519 c 0,0 16.8494,-300.4804 0,-303.2886 -16.8494,-2.8082 -252.7405,-2.8082 -252.7405,-2.8082 l 5.6165,297.6721 z"
         id="path9905"
         inkscape:connector-curvature="0" />
      <path
         sodipodi:nodetypes="csccc"
         style="fill:#d8eff1;fill-opacity:1;fill-rule:evenodd;stroke:none;stroke-width:8px;stroke-linecap:butt;stroke-linejoin:miter;stroke-opacity:1"
         d="m 3204.0122,1732.6765 c 0,0 3.0246,-294.122 -14.0411,-294.864 -64.5893,-2.8082 -207.8089,5.6166 -207.8089,5.6166 l -8.4246,283.6309 z"
         id="path9911"
         inkscape:connector-curvature="0" />
      <path
         inkscape:connector-curvature="0"
         id="path9903"
         d="m 3189.9711,2235.3493 c 0,0 16.8494,-300.4804 0,-303.2886 -16.8494,-2.8082 -252.7405,-2.8082 -252.7405,-2.8082 l 5.6165,297.6721 z"
         style="fill:#d8eff1;fill-opacity:1;fill-rule:evenodd;stroke:none;stroke-width:8px;stroke-linecap:butt;stroke-linejoin:miter;stroke-opacity:1"
         sodipodi:nodetypes="csccc" />
      <path
         sodipodi:nodetypes="csccc"
         style="fill:#d8eff1;fill-opacity:1;fill-rule:evenodd;stroke:none;stroke-width:8px;stroke-linecap:butt;stroke-linejoin:miter;stroke-opacity:1"
         d="m 3639.2875,2232.5411 c 0,0 16.8494,-300.4804 0,-303.2886 -16.8494,-2.8082 -252.7405,-2.8082 -252.7405,-2.8082 l 5.6165,297.6721 z"
         id="path9909"
         inkscape:connector-curvature="0" />
      <g
         transform="matrix(-1,0,0,1,4023.1192,-11.908594)"
         id="g9842">
        <path
           inkscape:connector-curvature="0"
           id="path9844"
           d="m 350,2290 67,-2 c 38,-1 107,-4 154,-5 l 86,-4 6,-97 c 4,-53 7,-139 7,-189 l 0,-93 -154,0 c -131,0 -155,2 -160,16 -3,9 -6,96 -6,195 l 0,179 z m 273,-60 -47,0 -46,0 0,-87 c 0,-49 -3,-112 -6,-140 l -7,-53 34,0 c 19,0 39,4 46,8 8,5 15,55 19,140 l 7,132 z m -225.65625,-2.0313 -4.875,-272.4218 77.84375,0 9.71875,38.9218 17.03125,231.0626 -99.71875,2.4374 z" />
        <path
           inkscape:connector-curvature="0"
           id="path9846"
           d="m 775.80495,1802.0464 5,-194 5,-193 157.00001,-3 156.00004,-3 -7,188 c -4,103 -8,188 -9,189 -1,1 -71,5 -155.00004,8 l -152.00001,8 z m 300.00005,-22 -1,-82 c 0,-46 -3,-77 -6,-70 -2,6 -11,12 -19,12 -8,0 -14,5 -14,10 0,6 -18,10 -40.00004,10 l -40,0 0,40 c 0,40 0,40 39,40 38.00004,0 39.00004,0 47.00004,-47 l 7,-48 8,40 c 16,80 23,75 -114.00004,75 l -124.00001,0 -7,-151 c -3,-82 -5,-153 -2,-157 2,-4 31,-5 63.00001,-2 l 58,5 6,60 6,60 1,-68 2,-67 43,6 c 64.00004,9 66.00004,10 70.00004,56 3,38 4,36 5,-14 l 2,-58 -135.00004,0 -135.00001,0 2,168 3,167 55,6 c 30.00001,3 92.00001,6 138.00001,7 l 82.00004,2 z m -252.00005,-40 46.00001,0 46,0 0,-72 c 0,-40 3,-104 7,-141 l 6,-68 -49,3 -49.00001,3 -3,138 -4,137 z m 140.59377,-87.1718 29.18752,-2.422 24.31246,-9.7344 12.1563,-162.9687 -68.0938,-7.2969 2.43752,182.422 z" />
        <path
           inkscape:connector-curvature="0"
           id="path9848"
           transform="matrix(8,0,0,-8,0,4000)"
           d="m 65.671875,336.125 -19.763672,0.30469 -0.0332,0.44531 -0.01172,0.13867 L 44.875,348.75 c -0.625,6.5 -1,17.125 -0.875,23.625 l 0.375,11.75 18.75,-0.25 C 73.375,383.75 82.25,383.25 82.75,383 c 0.5,-0.375 1,-11 1,-23.75 l 0,-23 -17.658203,0.12109 -0.419922,-0.24609 z m -19.154297,1.52148 6.875,0.1836 c 3.412143,0.45336 9.712894,0.93637 15.357422,1.04492 11.75,0.25 11.875,0.25 4.375,1.25 -4.125,0.5 -8.5,0.625 -9.75,0.375 -1.25,-0.375 -5,-0.375 -8.5,0.125 l -6.125,0.875 0,10.375 c 0,5.75 -0.5,10.875 -1.25,11.25 -0.661036,0.44069 -1.111795,-3.29334 -1.298828,-10.04492 l 0.316406,-15.4336 z M 50,343.75 l 5.625,0 5.625,0 0,11.125 c 0,6 0.375,13.625 0.75,16.875 l 0.875,5.75 -5.625,0 -5.625,0 -0.75,-10.375 C 50.375,361.5 50,353.875 50,350.25 l 0,-6.5 z" />
        <path
           inkscape:connector-curvature="0"
           id="path9850"
           transform="matrix(8,0,0,-8,0,4000)"
           d="m 135,336.25 -18.375,0.125 c -7.84162,0.074 -12.32326,0.23866 -13.98633,0.51367 l -5.511717,0.14453 -0.002,-0.1582 -0.01563,0.1582 -0.123047,0.004 -0.912109,5.47266 0.197265,2.89843 L 96,348.125 C 95.5,354.25 95.125,365 95.25,371.75 l 0.375,12.375 18.75,-0.25 c 12.75,-0.25 19,-0.75 19.625,-1.75 0.5,-0.875 1,-11.5 1,-23.75 l 0,-22.125 z m -37.404297,1.69922 8.003907,0 c 3.55353,0.37103 9.17881,0.67578 14.15039,0.67578 13.875,0.125 15.5,1.875 1.75,2.25 -5.25,0 -12.25,0.25 -15.5,0.25 l -6,0.125 0,10.875 C 100,358.25 99.375,364 98.75,365 c -0.875,1.25 -1.25,-2.875 -1.375,-13.125 l -0.08398,-4.98242 0.304687,-8.94336 z m 4.906247,4.89844 c 0.18213,-7.4e-4 0.38867,0.0586 0.62305,0.15234 1.125,0.375 3.75,0.75 5.75,0.75 3.625,0 3.625,0 3.625,7.875 0,4.375 0.375,12.5 1,17.875 l 0.875,9.875 0.75,-8.125 0.75,-8.125 0.125,8.375 0.25,8.5 5.625,0 c 3.125,0 5.625,-0.625 5.625,-1.25 0,-0.75 -1.875,-1.25 -4.25,-1.25 -3.875,0 -4.25,-0.375 -5,-4.75 -0.375,-2.5 -0.75,-6.75 -0.75,-9.375 0,-4.625 0,-4.625 5,-4.625 l 5,0 0.125,5.25 c 0,3 0.5,7.625 1,10.375 l 1.125,5 0.125,-5.5 c 0.125,-7.125 0.875,-6.25 1.75,2.125 l 0.75,6.625 -17.125,-0.375 -17.125,-0.375 -0.25,-3.75 c -0.125,-2.5 0,-2.875 0.5,-1 0.5,2.5 1.375,2.875 6.625,2.875 3.375,0 6.5,-0.625 6.875,-1.25 0.5,-0.75 -1.375,-1.25 -4.625,-1.25 l -5.375,0 -0.375,-17.625 c -0.32812,-14.10938 -0.27295,-17.02222 1.00195,-17.02734 z m 24.88867,1.48632 -0.30468,13.07422 -10.03321,-0.60742 0.60938,-11.85742 9.72851,-0.60938 z" />
        <path
           sodipodi:nodetypes="cccccscscsccccsccsccccccccc"
           inkscape:connector-curvature="0"
           d="m 670,1788.9518 -67,-2 c -38,-1 -107,-4 -154,-5 l -86,-4 -6,-97 c -4,-53 -7,-139 -7,-189 l 0,-93 154,0 c 131,0 155,2 160,16 3,9 6,96 6,195 z m -273,-60 47,0 46,0 0,-87 c 0,-49 3,-112 6,-140 l 7,-53 -34,0 c -19,0 -58.45818,-0.8645 -65.45818,3.1355 -8,5 -7.70318,57.4322 0.45818,144.8645 z m 225.65625,-2.0312 4.875,-272.4219 -94.86966,-7.2968 -4.8542,51.0832 -4.86989,226.198 z"
           id="path9852" />
        <path
           id="path9854"
           d="m 796.30757,2287.7211 67,-2 c 37.99999,-1 106.99999,-4 154.00003,-5 l 86,-4 6,-97 c 4,-53 7,-139 7,-189 l 0,-93 -154.00004,0 c -130.99999,0 -154.99999,2 -159.99999,16 -3,9 -6,96 -6,195 z m 273.00003,-60 -47,0 -46.00004,0 0,-87 c 0,-49 -3,-112 -6,-140 l -7,-53 34,0 c 19.00004,0 58.45824,-0.8645 65.45824,3.1355 8,5 7.7032,57.4322 -0.4582,144.8645 z m -225.65633,-2.0312 -4.875,-272.4219 94.8697,-7.2968 4.8542,51.0832 4.86989,226.198 z"
           inkscape:connector-curvature="0"
           sodipodi:nodetypes="cccccscscsccccsccsccccccccc" />
      </g>
    </g>
  </g>
</svg>
