<?xml version="1.0" encoding="utf-8"?>

<!DOCTYPE svg PUBLIC "-//W3C//DTD SVG 1.1//EN" "http://www.w3.org/Graphics/SVG/1.1/DTD/svg11.dtd">
<svg version="1.1" id="Layer_1" xmlns="http://www.w3.org/2000/svg" xmlns:xlink="http://www.w3.org/1999/xlink" x="0px" y="0px"
	 viewBox="0 0 2642 858" enable-background="new 0 0 2642 858" xml:space="preserve">
<g>
	<path d="M1321,819.117c10.764-7.824,26.573-15.862,54.452-25.922c116.763-32.459,162.304,18.276,232.155,20.164
		c142.604,16.977,169.822-89.051,151.988-113.744c27.701-105.558,137.108-173.942,207.309-134.941
		c24.738,19.53,35.9,35.031,8.789,74.465c28.646-2.865,44.249-15.853,48.614-49.633c4.914-17.198-0.892-38.661-14.993-53.77
		c35.736-1.985,136.585-17.483,163.894-40.844c55.39,6.335,60.017-10.541,76.001-21.198c14.993-6.721,38.776-23.266,55.321-27.919
		c17.58-4.799,57.763-4.824,81.171,23.266c14.722,21.517,6.44,66.424,1.034,91.512c39.156-22.702,48.974-64.739,37.211-101.335
		c-6.656-23.772-40.171-41.357-63.09-50.668c9.428-5.077,50.33-42.242,47.049-111.158c17.825,42.239,48.035,73.564,93.58,70.314
		c89.53,2.633,101.487-119.124,99.281-140.629c0.503-18.613-11.389-26.368-16.042-47.048c-6.708-38.335-12.204-96.574-8.775-141.145
		c-5.702,5.687-15.51,12.925-31.437,21.7c-75.756,45.874-76.018,34.96-129.785,41.361c-64.161,12.528-73.645,19.702-92.029,44.981
		c-8.789,13.442-21.715,24.817-24.817,43.946c-1.769,65.458,37.57,137.162,92.546,116.329
		c-25.704,105.661-147.643,145.079-185.106,147.35c16.469-24.761,14.027-89.171-31.035-132.356l39.81,5.17
		c52.784-6.334,63.814-85.201-17.564-120.465c-65.361-18.013-91.52,8.993-141.663-39.293c12.227,78.6-6.134,117.789-4.653,146.316
		c1.379,28.97,12.656,61.063,43.946,65.144c38.868,10.453,56.598-15.945,64.627-55.321c55.548,55.548,26.995,138.77-34.669,156.656
		c-55.698,22.647-77.077,26.776-226.956,43.429c12.298-7.393,31.977-37.15,34.64-66.178c5.825-34.952-2.755-84.379-11.389-118.914
		c-8.189-36.265-30.128-66.623-34.64-87.893c-5.459-36.845-5.907-48.771,26.899-55.321c7.295-0.457,25.219,4.932,29.441,30.504
		c9.842-19.575-5.111-58.783-19.13-69.797c-20.521-18.854-29.423-22.577-68.749,19.13c-5.551,8.967-17.525,23.632-1.034,64.11
		c-73.099-49.409-111.057-47.698-189.228-42.912c-110.118,13.757-135.681,75.561-172.698,20.164
		c-8.431-15.033-0.71-45.256,7.238-60.491c-36.052,9.501-55.493,31.228-45.497,67.212c7.269,21.808,19.538,34.688,45.497,33.606
		c-24.648,29.837-41.861,62.414-58.94,99.267c-23.991-55.366-64.981-40.3-77.567-20.164
		c-31.165,53.831,17.503,113.974,6.721,167.513c20.164-12.408,37.756-22.749,52.736-28.953c9.028-2.328,54.603-1.895,88.927-31.538
		c32.547-29.448,29.088-107.409-56.872-79.621c6.735-15.51,17.593-30.504,30.504-47.048c37.307-42.879,57.962-59.072,126.655-89.444
		c46.11-14.337,114.043-12.735,130.819-10.34c166.021,26.412,195.031,211.803,145.282,286.427
		c-15.843,38.024-125.37,80.509-139.078,173.717c-28.57-57.018-62.228-51.556-86.342-99.784
		c-15.315-32.161-6.872-53.084-2.068-84.791c8.283-36.681,14.54-61.178,36.177-93.063c2.563,29.047,1.08,42.46,20.164,52.736
		c9.321,5.687,19.13,12.408,29.484,12.408c11.181,0.533,34.163-15.018,40.313-38.259c27.401-61.653,6.065-63.654,41.878-129.771
		c-118.517,31.908-88.37-29.468-166.996,8.272c-12.408,7.755-20.681,20.164-26.885,28.953c-4.136,8.789-2.585,18.096-1.034,25.851
		c6.025,11.38,13.793,31.531,49.634,33.089c-68.799,40.654-68.222,144.196-34.123,206.807
		c-53.425-16.438-76.047-4.121-107.022,6.204c-13.945,6.204-25.837,11.374-35.674,17.578c32.171-61.279-4.937-113.46-74.45-70.314
		c-52.779,38.001-18.65,103.746-86.859,143.731c45.529-9.106,174.851,62.333,202.685,4.136c7.493-12.68,5.158-46.375-39.293-67.212
		c193.135-50.583,229.782,91.725,173.215,131.322c-53.019,36.53-198.893-7.28-220.78-8.789c-61.35,0-94.97,2.526-138.726,30.958
		c-43.755-28.433-77.376-30.958-138.726-30.958c-21.888,1.509-167.762,45.319-220.78,8.789
		c-56.568-39.597-19.92-181.905,173.215-131.322c-44.452,20.837-46.786,54.532-39.293,67.212
		c27.834,58.197,157.156-13.242,202.685-4.136c-68.208-39.984-34.08-105.73-86.859-143.731
		c-69.513-43.146-106.622,9.035-74.45,70.314c-9.838-6.204-21.729-11.374-35.674-17.578c-30.975-10.325-53.597-22.643-107.022-6.204
		c34.099-62.61,34.676-166.152-34.123-206.807c35.841-1.558,43.609-21.709,49.634-33.089c1.551-7.755,3.102-17.062-1.034-25.851
		c-6.204-8.789-14.477-21.198-26.885-28.953c-78.626-37.74-48.479,23.636-166.996-8.272c35.813,66.117,14.477,68.118,41.878,129.771
		c6.15,23.241,29.132,38.792,40.313,38.259c10.355,0,20.164-6.721,29.484-12.408c19.083-10.276,17.601-23.688,20.164-52.736
		c21.637,31.885,27.894,56.381,36.177,93.063c4.804,31.707,13.247,52.629-2.068,84.791c-24.114,48.228-57.772,42.766-86.342,99.784
		c-13.707-93.209-123.234-135.694-139.077-173.717c-49.749-74.624-20.74-260.015,145.282-286.427
		c16.777-2.395,84.709-3.996,130.819,10.34c68.693,30.372,89.347,46.565,126.655,89.444c12.911,16.544,23.769,31.538,30.504,47.048
		c-85.96-27.788-89.419,50.173-56.872,79.621c34.324,29.643,79.899,29.21,88.927,31.538c14.979,6.204,32.572,16.544,52.736,28.953
		c-10.782-53.539,37.886-113.683,6.721-167.513c-12.585-20.136-53.575-35.202-77.567,20.164
		c-17.079-36.854-34.292-69.43-58.94-99.267c25.959,1.082,38.228-11.798,45.497-33.606c9.995-35.984-9.445-57.711-45.497-67.212
		c7.948,15.235,15.669,45.457,7.238,60.491c-37.017,55.397-62.579-6.407-172.698-20.164c-78.171-4.786-116.129-6.497-189.228,42.912
		c16.491-40.478,4.517-55.143-1.034-64.11c-39.325-41.707-48.228-37.984-68.749-19.13c-14.019,11.015-28.972,50.222-19.13,69.797
		c4.222-25.572,22.146-30.961,29.441-30.504c32.807,6.549,32.358,18.475,26.899,55.321c-4.512,21.269-26.451,51.628-34.64,87.893
		c-8.634,34.534-17.214,83.962-11.389,118.914c2.663,29.028,22.342,58.786,34.64,66.178
		c-149.879-16.653-171.257-20.782-226.956-43.429c-61.664-17.886-90.217-101.108-34.669-156.656
		c8.029,39.375,25.759,65.774,64.627,55.321c31.29-4.081,42.567-36.174,43.946-65.144c1.481-28.527-16.88-67.716-4.653-146.316
		c-50.143,48.286-76.302,21.28-141.663,39.293c-81.378,35.264-70.348,114.131-17.564,120.465l39.81-5.17
		c-45.062,43.185-47.505,107.595-31.035,132.356c-37.464-2.27-159.402-41.688-185.106-147.35
		c54.977,20.833,94.315-50.87,92.546-116.329c-3.102-19.13-16.028-30.504-24.817-43.946c-18.384-25.279-27.868-32.453-92.029-44.981
		c-53.768-6.401-54.029,4.513-129.785-41.361c-15.927-8.775-25.735-16.013-31.437-21.7c3.429,44.571-2.066,102.811-8.775,141.145
		c-4.653,20.681-16.544,28.436-16.042,47.048c-2.206,21.504,9.752,143.262,99.282,140.629c45.545,3.25,75.755-28.075,93.58-70.314
		c-3.282,68.917,37.62,106.082,47.048,111.158c-22.919,9.311-56.434,26.895-63.09,50.668
		c-11.763,36.596-1.945,78.633,37.211,101.335c-5.406-25.088-13.688-69.995,1.034-91.512c23.408-28.09,63.591-28.064,81.171-23.266
		c16.545,4.653,40.327,21.198,55.321,27.919c15.984,10.656,20.611,27.533,76.001,21.198
		c27.309,23.361,128.158,38.859,163.894,40.844c-14.101,15.109-19.907,36.571-14.993,53.77c4.365,33.78,19.968,46.769,48.614,49.633
		c-27.111-39.434-15.949-54.935,8.789-74.465c70.201-39.001,179.608,29.383,207.309,134.941
		c-17.834,24.693,9.384,130.72,151.988,113.744c69.851-1.888,115.392-52.623,232.155-20.164
		C1294.427,803.255,1310.236,811.293,1321,819.117z"/>
	<polygon points="2575.95,38.883 2575.95,38.883 2575.95,38.883 	"/>
	<polygon points="66.05,38.883 66.05,38.883 66.05,38.883 	"/>
</g>
</svg>
