<?xml version="1.0" encoding="UTF-8" standalone="no"?>
<!-- Created with Inkscape (http://www.inkscape.org/) -->

<svg
   width="11in"
   height="8.5in"
   viewBox="0 0 1056 816"
   version="1.1"
   id="svg1"
   xml:space="preserve"
   inkscape:version="1.3.2 (091e20e, 2023-11-25, custom)"
   sodipodi:docname="rompecabezas-5.svg"
   xmlns:inkscape="http://www.inkscape.org/namespaces/inkscape"
   xmlns:sodipodi="http://sodipodi.sourceforge.net/DTD/sodipodi-0.dtd"
   xmlns:xlink="http://www.w3.org/1999/xlink"
   xmlns="http://www.w3.org/2000/svg"
   xmlns:svg="http://www.w3.org/2000/svg"><sodipodi:namedview
     id="namedview1"
     pagecolor="#ffffff"
     bordercolor="#000000"
     borderopacity="0.25"
     inkscape:showpageshadow="2"
     inkscape:pageopacity="0.0"
     inkscape:pagecheckerboard="0"
     inkscape:deskcolor="#d1d1d1"
     inkscape:document-units="in"
     showguides="true"
     showgrid="false"
     inkscape:zoom="1"
     inkscape:cx="524.5"
     inkscape:cy="380.5"
     inkscape:window-width="1920"
     inkscape:window-height="1051"
     inkscape:window-x="-9"
     inkscape:window-y="-9"
     inkscape:window-maximized="1"
     inkscape:current-layer="g91"><inkscape:grid
       id="grid50"
       units="in"
       originx="0"
       originy="0"
       spacingx="96"
       spacingy="96"
       empcolor="#0099e5"
       empopacity="0.30196078"
       color="#0099e5"
       opacity="0.14901961"
       empspacing="5"
       dotted="false"
       gridanglex="30"
       gridanglez="30"
       visible="false" /><sodipodi:guide
       position="324.0313,54.50336"
       orientation="0,-1"
       id="guide91"
       inkscape:locked="false" /><sodipodi:guide
       position="527.89368,401.26389"
       orientation="1,0"
       id="guide92"
       inkscape:locked="false" /><sodipodi:guide
       position="527.89368,401.26389"
       orientation="0,-1"
       id="guide93"
       inkscape:locked="false" /></sodipodi:namedview><defs
     id="defs1"><rect
       x="123.45387"
       y="408"
       width="301.10701"
       height="166.1107"
       id="rect91" /><rect
       x="-115.42435"
       y="227.83764"
       width="316.45217"
       height="52.240951"
       id="rect84" /><rect
       x="-115.42435"
       y="227.83764"
       width="167.61624"
       height="169.62362"
       id="rect85" /><rect
       x="-115.42435"
       y="227.83764"
       width="428.57565"
       height="44.722485"
       id="rect86" /><rect
       x="-115.42435"
       y="227.83764"
       width="167.61624"
       height="169.62362"
       id="rect87" /><rect
       x="-115.42435"
       y="227.83764"
       width="407.36868"
       height="36.870271"
       id="rect88" /><rect
       x="-115.42435"
       y="227.83764"
       width="167.61624"
       height="169.62362"
       id="rect89" /><rect
       x="-115.42435"
       y="227.83764"
       width="207.2153"
       height="85.313657"
       id="rect90" /></defs><g
     inkscape:label="Capa 1"
     inkscape:groupmode="layer"
     id="layer1"><g
       id="g91"><path
         id="path74"
         style="fill:#f8f84c;stroke:none;stroke-width:3.41213;stroke-linecap:square;stroke-miterlimit:1;paint-order:markers stroke fill;fill-opacity:1"
         d="m 654.95837,588.957 c -36.95176,27.36191 -81.6504,42.25929 -127.62902,42.53717 -45.67493,-0.28438 -90.09208,-14.99579 -126.90625,-42.03287 l -31.34377,43.13319 c 0,0 -12.99393,-42.20566 -33.49514,-16.89923 -21.5201,26.56402 26.47013,26.56546 26.47013,26.56546 l -38.02302,52.32329 c 59.01228,43.1879 130.17094,66.60875 203.29805,66.91263 73.60758,-0.31074 145.20608,-24.04306 204.42672,-67.75891 0,0 -15.41324,-40.15723 -33.46354,-45.65814 -3.03105,6.26648 -16.09196,35.77289 -35.6075,15.50966 -21.1783,-17.99252 14.46729,-33.26438 26.28343,-28.23004 z"
         inkscape:transform-center-x="-5e-06"
         inkscape:transform-center-y="260.49071" /><path
         d="M 513.04334,69.358309 C 367.69065,75.589399 240.99132,172.24281 197.18139,312.04079 l 57.81427,18.15466 c 0,0 -14.77496,-52.15862 20.60196,-41.40524 33.47907,10.17666 -6.65107,45.78524 -6.65107,45.78524 l 51.81555,16.27143 c 26.15343,-83.35668 99.45623,-142.14506 185.02367,-150.7245 3.93528,-0.3947 8.21617,-1.13795 16.75661,-0.93225 0.67529,0.0181 3.51134,-0.084 5.3513,-0.002 v -52.63014 c 0,0 38.91145,27.09878 41.063,-5.39831 2.36334,-35.69606 -41.063,-7.12437 -41.063,-7.12437 l 0,-64.834585 c -2.25687,0.124587 -4.68112,0.246707 -6.63766,0.113987 -6.72799,0 -7.06721,-0.0043 -8.21268,0.04436 z"
         style="fill:#a0ffa0;stroke:none;stroke-width:3.41213;stroke-linecap:square;stroke-miterlimit:1;paint-order:markers stroke fill;fill-opacity:1"
         id="path82"
         inkscape:transform-center-x="144.7734"
         inkscape:transform-center-y="-205.53111"
         sodipodi:nodetypes="ccccccccccsccccc" /><path
         d="m 857.50547,311.24175 -57.82131,18.14058 c 0,0 34.43712,28.21649 14.71285,41.98701 -2.0405,1.42443 -4.66167,2.69484 -7.9594,3.76285 -33.28948,10.78009 -20.70434,-41.37347 -20.70434,-41.37347 l -51.72383,16.22575 c 6.60196,20.98041 9.97083,42.84412 9.99069,64.83891 -0.30514,68.90041 -33.36224,133.54829 -89.04176,174.13362 l 34.01009,46.40221 c 0,0 -45.02058,3.92012 -26.35385,27.2673 16.9711,21.22633 35.67792,-14.54692 35.67792,-14.54692 l 33.46354,45.65814 C 820.84495,628.69171 873.66135,525.13084 874.0026,414.82338 873.9809,379.63027 868.59956,344.6457 858.04498,311.07256 Z"
         style="fill:#9696ef;stroke:none;stroke-width:1.80559;stroke-linecap:square;stroke-miterlimit:1;paint-order:markers stroke fill;fill-opacity:1"
         id="path80"
         inkscape:transform-center-x="-236.58681"
         inkscape:transform-center-y="87.669035" /><path
         id="path77"
         style="fill:#8ceaea;stroke:none;stroke-width:3.41213;stroke-linecap:square;stroke-miterlimit:1;paint-order:markers stroke fill;fill-opacity:1"
         d="m 266.91526,286.44324 c -24.05551,0.0282 -11.9196,42.86506 -11.9196,42.86506 l -57.81427,-18.15466 c -10.73892,33.51734 -16.31134,68.47464 -16.5253,103.66974 0.33458,110.80815 53.61952,214.78034 143.37521,279.76063 l 38.02302,-52.32329 c 0,0 -47.99023,-10e-4 -26.47013,-26.56546 20.50121,-25.30643 33.49514,16.89923 33.49514,16.89923 L 400.4231,589.4613 c -56.09552,-40.53549 -89.45145,-105.42984 -89.76454,-174.63792 0.0542,-22.00887 3.46096,-43.88107 10.10354,-64.86365 l -51.81555,-15.38428 c 0,0 40.13014,-36.49573 6.65107,-46.67239 -3.31651,-1.00807 -6.19372,-1.46289 -8.68236,-1.45982 z"
         inkscape:transform-center-x="237.35409"
         inkscape:transform-center-y="75.777507"
         sodipodi:nodetypes="ccccccccccccsc" /><path
         id="path84"
         style="fill:#f6a0f6;stroke:none;stroke-width:3.41213;stroke-linecap:square;stroke-miterlimit:1;paint-order:markers stroke fill;fill-opacity:1"
         d="m 533.1094,69.052924 -5.21572,0.147801 v 64.834585 c 0,0 43.43338,-27.91182 41.07004,6.19325 -2.25139,32.49032 -41.07004,5.39907 -41.07004,5.39907 v 53.56026 l 2.93707,-0.12449 c 69.20176,0.97194 133.88751,34.86443 173.88692,91.34365 12.59435,18.04922 22.36638,37.91106 28.97755,58.90376 l 51.76265,-16.43719 c 0,0 -12.40693,52.19671 20.84535,41.30287 3.2943,-1.07939 5.90988,-2.35955 7.94532,-3.79102 19.67714,-13.83804 -14.85386,-41.9341 -14.85386,-41.9341 l 57.75775,-18.33811 C 846.69667,276.50671 831.18105,244.68644 811.14514,215.75006 747.23918,125.22699 643.90834,70.707574 533.11265,69.052924 Z"
         inkscape:transform-center-x="-166.15259"
         inkscape:transform-center-y="-192.37368"
         sodipodi:nodetypes="cccsccccccsccccsc" /></g><text
       xml:space="preserve"
       id="text86"
       style="font-size:28px;line-height:1;font-family:Arial;-inkscape-font-specification:Arial;text-align:center;letter-spacing:0px;word-spacing:0px;text-anchor:middle;white-space:pre;fill:#333333;stroke:none;stroke-width:1.88976;stroke-linecap:square;stroke-miterlimit:1;paint-order:markers stroke fill"
       inkscape:transform-center-x="139.37668"
       inkscape:transform-center-y="-214.83352"
       transform="rotate(5.0080567,541.017,517.64036)"><textPath
         xlink:href="#path93"
         startOffset="50%"
         id="textPath100"><tspan
           id="tspan86"
           style="font-size:28px;fill:#333333">Reporte de resultados</tspan></textPath></text><text
       xml:space="preserve"
       id="text87"
       style="font-size:28px;line-height:1;font-family:Arial;-inkscape-font-specification:Arial;text-align:center;letter-spacing:0px;word-spacing:0px;text-anchor:middle;white-space:pre;fill:#333333;stroke:none;stroke-width:1.88976;stroke-linecap:square;stroke-miterlimit:1;paint-order:markers stroke fill"
       inkscape:transform-center-x="-174.96175"
       inkscape:transform-center-y="-208.966"
       transform="rotate(4.095253,527.89368,414.73611)"><textPath
         xlink:href="#path96"
         startOffset="50%"
         id="textPath97"><tspan
           id="tspan87"
           style="font-size:28px;fill:#333333">Hipótesis causal</tspan></textPath></text><text
       xml:space="preserve"
       id="text90"
       style="font-size:28px;line-height:1;font-family:Arial;-inkscape-font-specification:Arial;text-align:center;letter-spacing:0px;word-spacing:0px;text-anchor:middle;white-space:pre;fill:#ffffff;stroke:none;stroke-width:1.88976;stroke-linecap:square;stroke-miterlimit:1;paint-order:markers stroke fill"
       transform="rotate(2.6223542,389.82265,717.56851)"
       inkscape:transform-center-x="-244.74827"
       inkscape:transform-center-y="99.959823"><textPath
         xlink:href="#path95"
         startOffset="50%"
         id="textPath98"><tspan
           id="tspan90"
           style="font-size:28px;fill:#ffffff">Diseño de estudio</tspan></textPath></text><text
       xml:space="preserve"
       id="text91"
       style="font-size:40px;line-height:1;font-family:Arial;-inkscape-font-specification:Arial;text-align:center;letter-spacing:0px;word-spacing:0px;white-space:pre;shape-inside:url(#rect91);display:inline;fill:#333333;stroke:none;stroke-width:1.88976;stroke-linecap:square;stroke-miterlimit:1;paint-order:markers stroke fill" /><text
       xml:space="preserve"
       id="text84"
       style="font-size:28px;line-height:1;font-family:Arial;-inkscape-font-specification:Arial;text-align:center;letter-spacing:0px;word-spacing:0px;text-anchor:middle;white-space:pre;fill:#333333;stroke:none;stroke-width:1.88976;stroke-linecap:square;stroke-miterlimit:1;paint-order:markers stroke fill"
       transform="translate(-16,4)"
       inkscape:transform-center-x="259.12615"
       inkscape:transform-center-y="73.792932"><textPath
         xlink:href="#path94"
         startOffset="50%"
         id="textPath99"><tspan
           id="tspan84"
           style="font-size:28px;fill:#333333">Análisis de datos</tspan></textPath></text><text
       xml:space="preserve"
       id="text88"
       style="font-size:28px;line-height:1;font-family:Arial;-inkscape-font-specification:Arial;text-align:center;letter-spacing:0px;word-spacing:0px;text-anchor:middle;white-space:pre;fill:#000000;stroke:none;stroke-width:1.88976;stroke-linecap:square;stroke-miterlimit:1;paint-order:markers stroke fill"
       inkscape:transform-center-x="2.6725564"
       inkscape:transform-center-y="269.337"
       transform="translate(0,16)"><textPath
         xlink:href="#path91"
         startOffset="50%"
         id="textPath96"
         style="font-size:28px;fill:#000000">Obteneción de datos</textPath></text><path
       style="fill:none;stroke:#f9f9f9;stroke-width:1.88976;stroke-linecap:square;stroke-miterlimit:1;paint-order:markers stroke fill"
       id="path100"
       sodipodi:type="arc"
       sodipodi:cx="492.78818"
       sodipodi:cy="388.03226"
       sodipodi:rx="35.105511"
       sodipodi:ry="26.703848"
       sodipodi:start="5.9779757"
       sodipodi:end="0.94008941"
       sodipodi:open="true"
       sodipodi:arc-type="arc"
       d="m 526.27125,380.00793 a 35.105511,26.703848 0 0 1 -12.7808,29.59064" /></g><g
     inkscape:groupmode="layer"
     id="layer2"
     inkscape:label="Guías"
     style="display:none"><path
       style="fill:none;stroke:#f9f9f9;stroke-width:1.82079;stroke-linecap:square;stroke-miterlimit:1;paint-order:markers stroke fill"
       id="path91"
       sodipodi:type="arc"
       sodipodi:cx="222.19608"
       sodipodi:cy="633.48773"
       sodipodi:rx="277.48959"
       sodipodi:ry="277.48959"
       sodipodi:start="5.9779757"
       sodipodi:end="0.94008941"
       sodipodi:open="true"
       sodipodi:arc-type="arc"
       d="M 486.86121,550.10402 A 277.48959,277.48959 0 0 1 385.83608,857.59133"
       inkscape:transform-center-x="2.5115235"
       inkscape:transform-center-y="250.54365"
       transform="matrix(-0.3227013,0.94650086,0.94650086,0.3227013,0,0)" /><path
       style="fill:none;stroke:#f9f9f9;stroke-width:1.82079;stroke-linecap:square;stroke-miterlimit:1;paint-order:markers stroke fill"
       id="path93"
       sodipodi:type="arc"
       sodipodi:cx="-669.88007"
       sodipodi:cy="-44.028099"
       sodipodi:rx="277.48959"
       sodipodi:ry="277.48959"
       sodipodi:start="5.9779757"
       sodipodi:end="0.94008941"
       sodipodi:open="true"
       sodipodi:arc-type="arc"
       d="M -405.21493,-127.41181 A 277.48959,277.48959 0 0 1 -506.24006,180.0755"
       inkscape:transform-center-x="136.96682"
       inkscape:transform-center-y="-179.03056"
       transform="rotate(-145.60567)" /><path
       style="fill:none;stroke:#f9f9f9;stroke-width:1.82079;stroke-linecap:square;stroke-miterlimit:1;paint-order:markers stroke fill"
       id="path94"
       sodipodi:type="arc"
       sodipodi:cx="-544.70416"
       sodipodi:cy="392.3967"
       sodipodi:rx="277.48959"
       sodipodi:ry="277.48959"
       sodipodi:start="5.9779757"
       sodipodi:end="0.94008941"
       sodipodi:open="true"
       sodipodi:arc-type="arc"
       d="M -280.03903,309.01299 A 277.48959,277.48959 0 0 1 -381.06416,616.5003"
       inkscape:transform-center-x="225.15928"
       inkscape:transform-center-y="61.382314"
       transform="matrix(-0.99913282,-0.04163668,-0.04163668,0.99913282,0,0)" /><path
       style="fill:none;stroke:#f9f9f9;stroke-width:1.82079;stroke-linecap:square;stroke-miterlimit:1;paint-order:markers stroke fill"
       id="path96"
       sodipodi:type="arc"
       sodipodi:cx="-236.94028"
       sodipodi:cy="628.12189"
       sodipodi:rx="277.48959"
       sodipodi:ry="277.48959"
       sodipodi:start="5.9779757"
       sodipodi:end="0.94008941"
       sodipodi:open="true"
       sodipodi:arc-type="arc"
       d="M 27.724854,544.73818 A 277.48959,277.48959 0 0 1 -73.300274,852.22549"
       inkscape:transform-center-x="-131.45956"
       inkscape:transform-center-y="-183.1126"
       transform="rotate(-72.512779)" /><path
       style="fill:none;stroke:#f9f9f9;stroke-width:1.82079;stroke-linecap:square;stroke-miterlimit:1;paint-order:markers stroke fill"
       id="path95"
       sodipodi:type="arc"
       sodipodi:cx="671.20532"
       sodipodi:cy="-12.698651"
       sodipodi:rx="277.48959"
       sodipodi:ry="277.48959"
       sodipodi:start="5.9779757"
       sodipodi:end="0.94008941"
       sodipodi:open="true"
       sodipodi:arc-type="arc"
       d="M 935.87045,-96.08236 A 277.48959,277.48959 0 0 1 834.84533,211.40495"
       inkscape:transform-center-x="-219.19982"
       inkscape:transform-center-y="72.952094"
       transform="matrix(0.79789072,0.60280212,0.60280212,-0.79789072,0,0)" /></g></svg>
