<?xml version="1.0" encoding="UTF-8" standalone="no"?>
<!-- Created with Inkscape (http://www.inkscape.org/) -->

<svg
   width="11in"
   height="8.5in"
   viewBox="0 0 1056 816"
   version="1.1"
   id="svg1"
   xml:space="preserve"
   inkscape:version="1.3.2 (091e20e, 2023-11-25, custom)"
   sodipodi:docname="rompecabezas-5.svg"
   xmlns:inkscape="http://www.inkscape.org/namespaces/inkscape"
   xmlns:sodipodi="http://sodipodi.sourceforge.net/DTD/sodipodi-0.dtd"
   xmlns="http://www.w3.org/2000/svg"
   xmlns:svg="http://www.w3.org/2000/svg"><sodipodi:namedview
     id="namedview1"
     pagecolor="#ffffff"
     bordercolor="#000000"
     borderopacity="0.25"
     inkscape:showpageshadow="2"
     inkscape:pageopacity="0.0"
     inkscape:pagecheckerboard="0"
     inkscape:deskcolor="#d1d1d1"
     inkscape:document-units="in"
     showguides="true"
     showgrid="false"
     inkscape:zoom="1.4090142"
     inkscape:cx="549.67507"
     inkscape:cy="474.44517"
     inkscape:window-width="1920"
     inkscape:window-height="1051"
     inkscape:window-x="-9"
     inkscape:window-y="-9"
     inkscape:window-maximized="1"
     inkscape:current-layer="layer1"><inkscape:grid
       id="grid50"
       units="in"
       originx="0"
       originy="0"
       spacingx="96"
       spacingy="96"
       empcolor="#0099e5"
       empopacity="0.30196078"
       color="#0099e5"
       opacity="0.14901961"
       empspacing="5"
       dotted="false"
       gridanglex="30"
       gridanglez="30"
       visible="false" /></sodipodi:namedview><defs
     id="defs1" /><g
     inkscape:label="Capa 1"
     inkscape:groupmode="layer"
     id="layer1"><path
       id="path74"
       style="fill:#ffff00;stroke:none;stroke-width:3.41213;stroke-linecap:square;stroke-miterlimit:1;paint-order:markers stroke fill"
       d="m 654.95837,588.957 c -36.95176,27.36191 -81.6504,42.25929 -127.62902,42.53717 -45.67493,-0.28438 -90.09208,-14.99579 -126.90625,-42.03287 l -31.34377,43.13319 c 0,0 -12.99393,-42.20566 -33.49514,-16.89923 -21.5201,26.56402 26.47013,26.56546 26.47013,26.56546 l -38.02302,52.32329 c 59.01228,43.1879 130.17094,66.60875 203.29805,66.91263 73.60758,-0.31074 145.20608,-24.04306 204.42672,-67.75891 0,0 -15.41324,-40.15723 -33.46354,-45.65814 -3.03105,6.26648 -16.09196,35.77289 -35.6075,15.50966 -21.1783,-17.99252 14.46729,-33.26438 26.28343,-28.23004 z" /><path
       d="M 513.04334,68.471164 C 367.69065,74.702254 240.99132,171.35566 197.18139,311.15364 l 57.81427,18.15466 c 0,0 -14.77496,-52.15862 20.60196,-41.40524 33.47907,10.17666 -6.65107,45.78524 -6.65107,45.78524 l 51.81555,16.27143 c 26.15343,-83.35668 99.45623,-142.14506 185.02367,-150.7245 3.93528,-0.3947 13.00675,-0.2508 21.54719,-0.0451 0.67529,0.0181 2.00005,-0.37917 3.61822,-0.96274 l 0.87806,-52.55603 c 0,0 34.87605,27.09126 37.12744,-5.39907 2.36334,-34.10507 -36.92648,-6.54887 -36.92648,-6.54887 l 1.07216,-64.345266 c -1.90201,-0.4077 -3.81286,-0.77351 -5.7694,-0.90623 -6.72799,0 -13.14415,-0.0487 -14.28962,0 z"
       style="fill:#00ff00;stroke:none;stroke-width:3.41213;stroke-linecap:square;stroke-miterlimit:1;paint-order:markers stroke fill"
       id="path82" /><path
       d="m 857.50547,311.24175 -57.82131,18.14058 c 0,0 34.43712,28.21649 14.71285,41.98701 -2.0405,1.42443 -4.66167,2.69484 -7.9594,3.76285 -33.28948,10.78009 -20.70434,-41.37347 -20.70434,-41.37347 l -51.72383,16.22575 c 6.60196,20.98041 9.97083,42.84412 9.99069,64.83891 -0.30514,68.90041 -33.36224,133.54829 -89.04176,174.13362 l 34.01009,46.40221 c 0,0 -45.02058,3.92012 -26.35385,27.2673 16.9711,21.22633 35.67792,-14.54692 35.67792,-14.54692 l 33.46354,45.65814 C 820.84495,628.69171 873.66135,525.13084 874.0026,414.82338 873.9809,379.63027 868.59956,344.6457 858.04498,311.07256 Z"
       style="fill:#000080;stroke:none;stroke-width:1.80559;stroke-linecap:square;stroke-miterlimit:1;paint-order:markers stroke fill"
       id="path80" /><path
       id="path77"
       style="fill:#00ffff;stroke:none;stroke-width:3.41213;stroke-linecap:square;stroke-miterlimit:1;paint-order:markers stroke fill"
       d="m 266.91526,286.44324 c -24.05551,0.0282 -11.9196,42.86506 -11.9196,42.86506 l -57.81427,-18.15466 c -10.73892,33.51734 -16.31134,68.47464 -16.5253,103.66974 0.33458,110.80815 53.61952,214.78034 143.37521,279.76063 l 38.02302,-52.32329 c 0,0 -47.99023,-10e-4 -26.47013,-26.56546 20.50121,-25.30643 33.49514,16.89923 33.49514,16.89923 L 400.4231,589.4613 c -56.09552,-40.53549 -89.45145,-105.42984 -89.76454,-174.63792 0.0542,-22.00887 3.46096,-43.88107 10.10354,-64.86365 L 268.94655,333.6883 c 0,0 40.13014,-35.60858 6.65107,-45.78524 -3.31651,-1.00807 -6.19372,-1.46289 -8.68236,-1.45982 z" /><path
       id="path84"
       style="fill:#ff00ff;stroke:none;stroke-width:3.41213;stroke-linecap:square;stroke-miterlimit:1;paint-order:markers stroke fill"
       d="m 533.1094,69.052924 v 0.32447 l -1.07216,64.345256 c 0,0 39.28982,-27.55619 36.92648,6.54888 -2.25139,32.49032 -37.12744,5.39907 -37.12744,5.39907 l -0.87806,52.55603 -0.0181,0.75474 c 69.20176,0.97194 133.77814,34.94646 173.77755,91.42568 12.59435,18.04922 22.36638,37.91106 28.97755,58.90376 l 51.76265,-16.43719 c 0,0 -12.40693,52.19671 20.84535,41.30287 3.2943,-1.07939 5.90988,-2.35955 7.94532,-3.79102 19.67714,-13.83804 -14.85386,-41.9341 -14.85386,-41.9341 l 57.75775,-18.33811 C 846.69667,276.50671 831.18105,244.68644 811.14514,215.75006 747.23918,125.22699 643.90834,70.707574 533.11265,69.052924 Z m 29.82401,17.52343 c 0.0758,0.0697 0.14987,0.13813 0.2257,0.20801 -0.0758,-0.0699 -0.14986,-0.13831 -0.2257,-0.20801 z m 28.07476,34.538946 c 1.71928,2.5179 3.13992,4.59649 4.2388,6.04458 -1.09888,-1.44809 -2.51952,-3.52668 -4.2388,-6.04458 z m 5.64247,7.71962 c 0.38531,0.38531 0.68775,0.59007 0.90279,0.58898 -0.21504,0.001 -0.51748,-0.20385 -0.90279,-0.58898 z m 2.01016,36.24938 c -0.36473,0 -1.46487,0.43569 -3.13866,1.20596 1.67379,-0.77045 2.77393,-1.20578 3.13866,-1.20596 z m -9.72274,4.42569 c -5.32432,2.68888 -12.30365,6.33075 -19.65692,10.13892 7.35327,-3.80798 14.3326,-7.45004 19.65692,-10.13892 z" /></g></svg>
